<?xml version="1.0" standalone="no"?>
<!DOCTYPE svg PUBLIC "-//W3C//DTD SVG 20010904//EN"
 "http://www.w3.org/TR/2001/REC-SVG-20010904/DTD/svg10.dtd">
<svg version="1.0" xmlns="http://www.w3.org/2000/svg"
 width="1630.000000pt" height="1630.000000pt" viewBox="0 0 1630.000000 1630.000000"
 preserveAspectRatio="xMidYMid meet">
<metadata>
Created by potrace 1.11, written by Peter Selinger 2001-2013
</metadata>
<g transform="translate(0.000000,1630.000000) scale(0.100000,-0.100000)"
fill="#000000" stroke="none">
<path d="M7781 14500 c-1545 -80 -2969 -701 -4069 -1774 -1114 -1087 -1769
-2517 -1873 -4086 -15 -223 -6 -770 15 -980 149 -1450 750 -2745 1746 -3764
981 -1003 2215 -1632 3590 -1830 321 -46 517 -60 890 -60 372 0 570 14 888 59
2206 318 4076 1785 4911 3852 231 573 375 1177 433 1823 20 222 17 860 -5
1080 -143 1423 -699 2666 -1655 3696 -996 1074 -2359 1769 -3812 1943 -338 41
-751 57 -1059 41z m677 -810 c1660 -119 3148 -965 4104 -2335 799 -1146 1121
-2587 893 -3995 -241 -1480 -1112 -2823 -2371 -3653 -735 -484 -1565 -781
-2436 -872 -81 -8 -170 -15 -198 -15 l-50 0 0 2920 0 2920 2300 0 c1265 0
2300 1 2300 3 0 1 -54 187 -118 412 l-118 410 -4662 3 -4661 2 -16 -52 c-8
-29 -64 -215 -124 -413 l-108 -360 2283 -3 2284 -2 0 -2920 0 -2920 -57 0
c-80 0 -390 36 -558 65 -2374 409 -4214 2360 -4479 4750 -215 1931 591 3796
2146 4970 857 648 1853 1017 2933 1088 124 8 580 6 713 -3z"/>
</g>
</svg>
