<svg id="Layer_1" data-name="Layer 1" xmlns="http://www.w3.org/2000/svg" viewBox="0 0 404.8251 367.6596"><defs><style>.cls-1{fill:gray;}.cls-2{stroke:#ff0;stroke-miterlimit:10;}.cls-3{fill:#ff0;}.cls-4{fill:#4d4d4d;}</style></defs><rect class="cls-1" x="15.808" y="158.3117" width="377.2677" height="183.0425" rx="12"/><path d="M149.948,195.8947l-2.0938,1.9961a6.4829,6.4829,0,0,0-4.8066-2.2578,5.2655,5.2655,0,0,0-5.3408,5.34,5.6115,5.6115,0,0,0,.6836,2.7929,4.8965,4.8965,0,0,0,1.9335,1.9155,5.6107,5.6107,0,0,0,2.7774.6954,5.7234,5.7234,0,0,0,2.3818-.4869,8.5337,8.5337,0,0,0,2.3711-1.771l2.0293,2.1177a11.1492,11.1492,0,0,1-3.2929,2.3584,8.9853,8.9853,0,0,1-3.5381.6577,8.1439,8.1439,0,0,1-6.003-2.3252,8.048,8.048,0,0,1-2.3359-5.96,8.16,8.16,0,0,1,1.0635-4.18,7.9076,7.9076,0,0,1,3.0468-2.94,8.5939,8.5939,0,0,1,4.2706-1.1119,9.0684,9.0684,0,0,1,6.8535,3.1592Z"/><path d="M157.7087,196.9265a6.1637,6.1637,0,0,1,3.0947.8232,6.0349,6.0349,0,0,1,3.0743,5.2813,6.1126,6.1126,0,0,1-.8184,3.0786,5.9,5.9,0,0,1-2.2285,2.24,6.1592,6.1592,0,0,1-3.1113.8071,5.8,5.8,0,0,1-4.2706-1.78,6.1661,6.1661,0,0,1,.23-8.8682A5.84,5.84,0,0,1,157.7087,196.9265Zm.0479,2.7475a3.0058,3.0058,0,0,0-2.2647.9458,3.36,3.36,0,0,0-.9053,2.4214,3.4239,3.4239,0,0,0,.8946,2.459,2.99,2.99,0,0,0,2.2646.9409,3.0238,3.0238,0,0,0,2.2813-.9516,3.7509,3.7509,0,0,0,.0156-4.88A3.0222,3.0222,0,0,0,157.7566,199.674Z"/><path d="M166.2614,197.2258h2.919v1.1919a6.99,6.99,0,0,1,1.7978-1.1641,4.3527,4.3527,0,0,1,1.65-.3271,3.9954,3.9954,0,0,1,2.9365,1.208,4.1493,4.1493,0,0,1,1.0137,3.0361v7.6865h-2.8868v-5.0937a12.922,12.922,0,0,0-.1865-2.7656,1.8911,1.8911,0,0,0-.65-1.0411,1.8236,1.8236,0,0,0-1.1465-.3579,2.1491,2.1491,0,0,0-1.5195.5928,3.1578,3.1578,0,0,0-.88,1.6392,13.1679,13.1679,0,0,0-.1279,2.36v4.6665h-2.919Z"/><path d="M179.7527,192.9387h2.9189v4.2871h1.7315v2.5122h-1.7315v9.1191h-2.9189V199.738h-1.4961v-2.5122h1.4961Z"/><path d="M194.5486,197.2258h2.9189v11.6313h-2.9189v-1.23a5.7127,5.7127,0,0,1-1.7139,1.1709,4.806,4.806,0,0,1-1.8633.3579,5.1766,5.1766,0,0,1-3.8975-1.748,6.0957,6.0957,0,0,1-1.6445-4.3457,6.2487,6.2487,0,0,1,1.5908-4.415,5.0713,5.0713,0,0,1,3.8662-1.7212,4.91,4.91,0,0,1,1.9639.3955,5.36,5.36,0,0,1,1.6983,1.1865ZM191.48,199.62a2.95,2.95,0,0,0-2.248.957,3.4475,3.4475,0,0,0-.8946,2.4537,3.4865,3.4865,0,0,0,.91,2.48,2.9528,2.9528,0,0,0,2.2431.9727,3.0064,3.0064,0,0,0,2.28-.9565,3.4982,3.4982,0,0,0,.9053-2.5069,3.3977,3.3977,0,0,0-.9053-2.459A3.0451,3.0451,0,0,0,191.48,199.62Z"/><path d="M211.8034,199.5778l-2.43,1.336a4.133,4.133,0,0,0-1.3545-.9942,4.07,4.07,0,0,0-1.5674-.2778,3.6539,3.6539,0,0,0-2.6494.9766,3.3266,3.3266,0,0,0-1.0118,2.5029,3.2172,3.2172,0,0,0,.9747,2.4233,3.53,3.53,0,0,0,2.5576.939,3.7208,3.7208,0,0,0,3.0508-1.3359l2.3007,1.5756a7.0891,7.0891,0,0,1-10.0859.6158,6.0454,6.0454,0,0,1,1.4639-9.6,7.04,7.04,0,0,1,3.3838-.8125,6.859,6.859,0,0,1,3.1113.6894A5.91,5.91,0,0,1,211.8034,199.5778Z"/><path d="M214.7859,192.9387h2.9189v4.2871h1.7315v2.5122h-1.7315v9.1191h-2.9189V199.738H213.29v-2.5122h1.4961Z"/><path d="M227.487,193.1311h7.8037V196.05h-4.832v2.8545h4.832v2.876h-4.832v7.0771H227.487Z"/><path d="M243.0954,196.9265a6.167,6.167,0,0,1,3.0948.8232,6.0368,6.0368,0,0,1,3.0732,5.2813,6.1116,6.1116,0,0,1-.8174,3.0786,5.9086,5.9086,0,0,1-2.23,2.24,6.1539,6.1539,0,0,1-3.1113.8071,5.803,5.803,0,0,1-4.27-1.78,6.1661,6.1661,0,0,1,.23-8.8682A5.8415,5.8415,0,0,1,243.0954,196.9265Zm.0479,2.7475a3.0064,3.0064,0,0,0-2.2656.9458,3.363,3.363,0,0,0-.9043,2.4214,3.42,3.42,0,0,0,.8945,2.459,2.9884,2.9884,0,0,0,2.2646.9409,3.0267,3.0267,0,0,0,2.2813-.9516,3.7509,3.7509,0,0,0,.0156-4.88A3.0253,3.0253,0,0,0,243.1433,199.674Z"/><path d="M250.9636,197.2258h2.501V198.69a3.13,3.13,0,0,1,1.08-1.3149,2.6071,2.6071,0,0,1,1.4755-.4487,2.7256,2.7256,0,0,1,1.1866.2993l-.9082,2.5122a2.013,2.013,0,0,0-.8448-.2564,1.3359,1.3359,0,0,0-1.1386.8335,7.6227,7.6227,0,0,0-.4649,3.2715l.0108.5664v4.7041h-2.8975Z"/><path d="M258.6286,197.2258h2.919v1.3364a4.984,4.984,0,0,1,1.6631-1.23,4.857,4.857,0,0,1,1.9951-.4062,3.7126,3.7126,0,0,1,1.9687.5341,3.8666,3.8666,0,0,1,1.4121,1.5611,4.7239,4.7239,0,0,1,1.7061-1.5611,4.6635,4.6635,0,0,1,2.21-.5341,4.0868,4.0868,0,0,1,2.1816.5771,3.3325,3.3325,0,0,1,1.3535,1.5073,8.0382,8.0382,0,0,1,.4121,3.0254v6.8208h-2.9394v-5.9013a5.0436,5.0436,0,0,0-.4922-2.6778,1.6839,1.6839,0,0,0-1.4756-.7,2.2426,2.2426,0,0,0-1.3418.4273,2.5277,2.5277,0,0,0-.8818,1.1816,7.3461,7.3461,0,0,0-.2881,2.4214v5.249h-2.94v-5.6338a7.9045,7.9045,0,0,0-.2305-2.2612,2.0488,2.0488,0,0,0-.69-1.0425,1.8194,1.8194,0,0,0-1.1153-.3418,2.1964,2.1964,0,0,0-1.3232.4327,2.5889,2.5889,0,0,0-.89,1.2133,7.512,7.512,0,0,0-.2939,2.459v5.1743h-2.919Z"/><path class="cls-2" d="M108.2487,226.994l-4.9331,29.5986q-1.2686,7.5407-3.3475,11.1523a14.8234,14.8234,0,0,1-6.8359,5.8493,26.4512,26.4512,0,0,1-11.3461,2.2375q-8.528,0-13.2842-3.647T63.745,261.8076a31.6829,31.6829,0,0,1,.4933-5.215l4.9684-29.5986H83.8548l-4.9209,29.5991a23.4272,23.4272,0,0,0-.4214,3.5941,4.053,4.053,0,0,0,1.7765,3.4879,7.162,7.162,0,0,0,4.2749,1.2685,6.5621,6.5621,0,0,0,4.75-1.569q1.6187-1.5694,2.3936-6.2907l5.0373-30.09Z"/><path class="cls-2" d="M170.1547,226.994l-8.0339,48.0977H151.43l-9.2255-18.4658a57.9283,57.9283,0,0,1-4.7619-11.9819q.0705,1.0578.07,1.6566a34.0538,34.0538,0,0,1-.529,5.216l-3.95,23.5751H121.317l8.0339-48.0977h12.9548l5.284,11.1352a136.7809,136.7809,0,0,1,7.153,17.09q-.1058-1.4446-.1057-2.1508a59.2279,59.2279,0,0,1,.9509-7.8235l3.0626-18.251Z"/><path class="cls-2" d="M183.8225,275.0917l8.0339-48.0977H207.889a42.6982,42.6982,0,0,1,9.4258.8456,17.0133,17.0133,0,0,1,6.9944,3.6646,17.5973,17.5973,0,0,1,5.1093,7.1707,26.5349,26.5349,0,0,1,1.7266,9.8485,29.9388,29.9388,0,0,1-2.6428,12.7909,23.6338,23.6338,0,0,1-6.9944,9.0029,19.7549,19.7549,0,0,1-8.492,4.0522,71.6181,71.6181,0,0,1-11.61.7223Zm16.1985-10.7823h3.2364q5.1027,0,7.53-1.4428a11.3991,11.3991,0,0,0,4.1863-5.3662,22.9889,22.9889,0,0,0,1.76-9.4487q0-10.6275-8.0662-10.6277h-4.1565Z"/><path class="cls-2" d="M283.96,264.0275l-1.8675,11.0642H246.6447l8.0339-48.0977h34.567L287.4838,237.53H266.8509l-1.25,7.5406h17.3369l-1.7619,10.43H263.8739l-1.4129,8.5272Z"/><path class="cls-2" d="M337.0649,254.935l5.2071,20.1567H328.0409l-4.2328-18.2877H318.117l-3.072,18.2877H301.3273l8.0339-48.0977h21.0009q8.5625,0,12.6851,3.7526t4.1227,10.2005Q347.17,251.27,337.0649,254.935Zm-17.2669-8.1381h5.4093q7.7976,0,7.7976-5.2855,0-4.44-6.5438-4.44h-5.03Z"/><path class="cls-2" d="M73.8822,293.7009l5.5256.71a11.712,11.712,0,0,1-3.3139,5.5407,8.4154,8.4154,0,0,1-5.9257,2.159,7.75,7.75,0,0,1-6.1673-2.6345,9.9564,9.9564,0,0,1-2.2872-6.7712,13.4913,13.4913,0,0,1,2.8232-8.447,9.2464,9.2464,0,0,1,7.76-3.6762,7.6763,7.6763,0,0,1,8.0922,8.0318l-5.8124.4227a5.8644,5.8644,0,0,0-.5888-2.8383,2.02,2.02,0,0,0-1.8872-.936q-2.2952,0-3.1327,3.3969a23.8276,23.8276,0,0,0-.8379,5.3445q0,3.17,2.4759,3.17a2.57,2.57,0,0,0,1.9778-.8152A6.775,6.775,0,0,0,73.8822,293.7009Z"/><path class="cls-2" d="M95.9678,302.2007a9.2232,9.2232,0,0,1-6.3409-2.3929,8.706,8.706,0,0,1-2.6874-6.8617,13.3074,13.3074,0,0,1,3.0044-8.7943,9.7188,9.7188,0,0,1,7.8506-3.6158,8.56,8.56,0,0,1,6.3711,2.5288,9.0278,9.0278,0,0,1,2.4911,6.62,13.6246,13.6246,0,0,1-2.9591,8.87A9.4811,9.4811,0,0,1,95.9678,302.2007ZM96.013,297.4a2.6812,2.6812,0,0,0,2.4307-1.3512,11.8979,11.8979,0,0,0,1.3135-3.9631,23.9852,23.9852,0,0,0,.4831-3.5328,3.486,3.486,0,0,0-.7322-2.4005,2.4814,2.4814,0,0,0-1.94-.8152q-2.31,0-3.246,3.2157a20.676,20.676,0,0,0-.936,5.6917Q93.3861,297.4,96.013,297.4Z"/><path class="cls-2" d="M134.1172,281.0644l-3.4423,20.6079h-4.58l-3.9528-7.9118a24.823,24.823,0,0,1-2.04-5.1338q.03.4533.03.71a14.5955,14.5955,0,0,1-.2266,2.2349l-1.6924,10.1009h-5.02l3.4422-20.6079h5.5506l2.264,4.771a58.6153,58.6153,0,0,1,3.0647,7.3224q-.0453-.6189-.0453-.9215a25.3783,25.3783,0,0,1,.4075-3.3521l1.3122-7.82Z"/><path class="cls-2" d="M158.7391,285.85,153.44,287.194a2.2732,2.2732,0,0,0-1.1323-1.4494,3.8834,3.8834,0,0,0-1.9928-.5284q-2.0382,0-2.0382,1.3588a1.0862,1.0862,0,0,0,.2869.7548,4.7082,4.7082,0,0,0,1.6147.7872l3.2739,1.1679a8.1821,8.1821,0,0,1,2.386,1.3376,5.4075,5.4075,0,0,1,1.5869,1.931,5.285,5.285,0,0,1,.4837,2.24,6.4187,6.4187,0,0,1-2.4533,5.1593,9.9218,9.9218,0,0,1-6.5447,2.0365,12.57,12.57,0,0,1-6.1069-1.4192,7.6357,7.6357,0,0,1-3.6309-4.3329l5.9484-1.1625q.77,2.1891,3.8045,2.1891a2.91,2.91,0,0,0,1.8343-.46,1.3358,1.3358,0,0,0,.5662-1.0492,1.0665,1.0665,0,0,0-.2189-.6643,1.4269,1.4269,0,0,0-.4681-.4152q-.249-.1279-2.3463-.9016a35.5153,35.5153,0,0,1-3.9778-1.657,5.0912,5.0912,0,0,1-1.9035-1.818,5.1966,5.1966,0,0,1-.7628-2.8366,6.3078,6.3078,0,0,1,2.0758-4.7754q2.0757-1.9538,6.3485-1.9538a10.7927,10.7927,0,0,1,5.586,1.3738A6.5976,6.5976,0,0,1,158.7391,285.85Z"/><path class="cls-2" d="M176.3932,285.7446l-2.6723,15.9277h-5.9857l2.6723-15.9277H165.999l.8-4.7406h14.9233l-.785,4.7406Z"/><path class="cls-2" d="M201.3135,293.036l2.231,8.6363h-6.0974l-1.8136-7.8355h-2.4384l-1.3162,7.8355h-5.8775l3.4422-20.6079h8.998q3.6687,0,5.4351,1.6079a5.6159,5.6159,0,0,1,1.7664,4.37A5.9229,5.9229,0,0,1,201.3135,293.036Zm-7.3981-3.4869h2.3176q3.3409,0,3.3409-2.2646,0-1.9022-2.8037-1.9022h-2.1553Z"/><path class="cls-2" d="M232.0163,281.0644l-2.1136,12.6818a14.9967,14.9967,0,0,1-1.4343,4.7783,6.35,6.35,0,0,1-2.9289,2.5062,11.333,11.333,0,0,1-4.8613.9587,9.1655,9.1655,0,0,1-5.6917-1.5626,5.2716,5.2716,0,0,1-2.0382-4.4462,13.5745,13.5745,0,0,1,.2114-2.2344l2.1287-12.6818h6.2761l-2.1084,12.682a10.043,10.043,0,0,0-.18,1.54,1.7364,1.7364,0,0,0,.7612,1.4944,3.0687,3.0687,0,0,0,1.8316.5435,2.8117,2.8117,0,0,0,2.035-.6723,4.9978,4.9978,0,0,0,1.0255-2.6953l2.1583-12.8923Z"/><path class="cls-2" d="M250.5542,293.7009l5.5257.71a11.7128,11.7128,0,0,1-3.3139,5.5407,8.4154,8.4154,0,0,1-5.9257,2.159,7.75,7.75,0,0,1-6.1673-2.6345,9.9564,9.9564,0,0,1-2.2873-6.7712,13.4913,13.4913,0,0,1,2.8232-8.447,9.2467,9.2467,0,0,1,7.76-3.6762,7.6764,7.6764,0,0,1,8.0922,8.0318l-5.8125.4227a5.8621,5.8621,0,0,0-.5888-2.8383,2.02,2.02,0,0,0-1.8872-.936q-2.295,0-3.1327,3.3969a23.8276,23.8276,0,0,0-.8379,5.3445q0,3.17,2.476,3.17a2.57,2.57,0,0,0,1.9777-.8152A6.7723,6.7723,0,0,0,250.5542,293.7009Z"/><path class="cls-2" d="M274.519,285.7446l-2.6722,15.9277h-5.9857l2.6722-15.9277h-4.4084l.8-4.7406h14.9234l-.7851,4.7406Z"/><path class="cls-2" d="M293.431,281.0644l-3.4418,20.6079H284.127l3.4422-20.6079Z"/><path class="cls-2" d="M309.0209,302.2007a9.2242,9.2242,0,0,1-6.3409-2.3929,8.7062,8.7062,0,0,1-2.6873-6.8617,13.3074,13.3074,0,0,1,3.0044-8.7943,9.719,9.719,0,0,1,7.8506-3.6158,8.56,8.56,0,0,1,6.3711,2.5288,9.0278,9.0278,0,0,1,2.4911,6.62,13.6235,13.6235,0,0,1-2.9591,8.87A9.4811,9.4811,0,0,1,309.0209,302.2007Zm.0453-4.8009a2.6811,2.6811,0,0,0,2.4307-1.3512,11.8888,11.8888,0,0,0,1.3135-3.9631,24,24,0,0,0,.4831-3.5328,3.486,3.486,0,0,0-.7322-2.4005,2.4813,2.4813,0,0,0-1.94-.8152q-2.31,0-3.2459,3.2157a20.6836,20.6836,0,0,0-.936,5.6917Q306.4393,297.4,309.0662,297.4Z"/><path class="cls-2" d="M347.17,281.0644l-3.4422,20.6079h-4.58l-3.9526-7.9118a24.8043,24.8043,0,0,1-2.04-5.1338c.02.3022.03.5389.03.71a14.59,14.59,0,0,1-.2269,2.2349l-1.6921,10.1009h-5.0208l3.4422-20.6079h5.5508l2.2638,4.771a58.6355,58.6355,0,0,1,3.0648,7.3224q-.0453-.6189-.0453-.9215a25.36,25.36,0,0,1,.4072-3.3521l1.3126-7.82Z"/><polygon class="cls-3" points="15.77 318.204 20.03 313.944 38.835 313.944 15.806 336.973 15.77 318.204"/><polygon class="cls-3" points="29.321 341.269 56.645 313.944 75.45 313.944 48.04 341.354 29.321 341.269"/><polygon class="cls-3" points="65.936 341.269 93.26 313.944 112.065 313.944 84.655 341.354 65.936 341.269"/><polygon class="cls-3" points="102.271 341.269 129.596 313.944 148.4 313.944 120.99 341.354 102.271 341.269"/><polygon class="cls-3" points="138.886 341.269 166.211 313.944 185.015 313.944 157.605 341.354 138.886 341.269"/><polygon class="cls-3" points="175.501 341.269 202.826 313.944 221.63 313.944 194.22 341.354 175.501 341.269"/><polygon class="cls-3" points="211.837 341.269 239.161 313.944 257.966 313.944 230.556 341.354 211.837 341.269"/><polygon class="cls-3" points="248.452 341.269 275.776 313.944 294.581 313.944 267.171 341.354 248.452 341.269"/><polygon class="cls-3" points="285.067 341.269 312.391 313.944 331.196 313.944 303.786 341.354 285.067 341.269"/><polygon class="cls-3" points="321.402 341.269 348.727 313.944 367.531 313.944 340.121 341.354 321.402 341.269"/><polygon class="cls-3" points="358.017 341.269 385.342 313.944 393.076 313.944 393.076 325.015 376.736 341.354 358.017 341.269"/><polygon class="cls-3" points="15.77 162.404 20.03 158.144 38.835 158.144 15.806 181.172 15.77 162.404"/><polygon class="cls-3" points="29.321 185.468 56.645 158.144 75.45 158.144 48.04 185.554 29.321 185.468"/><polygon class="cls-3" points="65.936 185.468 93.26 158.144 112.065 158.144 84.655 185.554 65.936 185.468"/><polygon class="cls-3" points="102.271 185.468 129.596 158.144 148.4 158.144 120.99 185.554 102.271 185.468"/><polygon class="cls-3" points="138.886 185.468 166.211 158.144 185.015 158.144 157.605 185.554 138.886 185.468"/><polygon class="cls-3" points="175.501 185.468 202.826 158.144 221.63 158.144 194.22 185.554 175.501 185.468"/><polygon class="cls-3" points="211.837 185.468 239.161 158.144 257.966 158.144 230.556 185.554 211.837 185.468"/><polygon class="cls-3" points="248.452 185.468 275.776 158.144 294.581 158.144 267.171 185.554 248.452 185.468"/><polygon class="cls-3" points="285.067 185.468 312.391 158.144 331.196 158.144 303.786 185.554 285.067 185.468"/><polygon class="cls-3" points="321.402 185.468 348.727 158.144 367.531 158.144 340.121 185.554 321.402 185.468"/><path class="cls-3" d="M358.0171,185.4682l27.6647-27.1565h3.0149a4.5305,4.5305,0,0,1,4.3789,4.3789v6.5235l-16.3394,16.3395Z"/><circle cx="62.9664" cy="182.2955" r="10.447"/><circle cx="345.9172" cy="182.2955" r="10.447"/><path d="M65.9355,158.1435,208.5283,15.5508c4.78-4.7538,18.01-5.3686,22.6168,0l110.362,142.7609h-20.105L227.47,33.847c-3.1677-3.913-10.9938-4.8447-15.6329,0L87.1557,158.5279Z"/><circle cx="220.501" cy="33.1003" r="12.6517"/><circle class="cls-4" cx="219.1789" cy="31.7782" r="12.6517"/></svg>