<svg id="Layer_1" data-name="Layer 1" xmlns="http://www.w3.org/2000/svg" viewBox="0 0 512.5508 240"><defs><style>.cls-1{fill:#fc6;}</style></defs><path d="M398.1519,221.3448a379.6456,379.6456,0,0,0-279.4834-2.1014q-.8869-2.2979-1.7738-4.5958a384.5709,384.5709,0,0,1,283.11,2.1323Q399.0778,219.0623,398.1519,221.3448Z"/><path d="M398.4275,221.9957l-.4629-.1875A377.8052,377.8052,0,0,0,118.8489,219.71l-.4663.1806-2.1343-5.5283.4663-.1807a385.0832,385.0832,0,0,1,283.4776,2.1348l.4638.1885ZM255.763,193.1285c1.0249,0,2.0424.0039,3.0688.0127a378.0716,378.0716,0,0,1,139.0449,27.5527l1.4766-3.6377a382.72,382.72,0,0,0-281.812-2.122l1.414,3.6631A378.9625,378.9625,0,0,1,255.763,193.1285Z"/><path d="M79.4047,200.8621a40.6586,40.6586,0,0,1-4.7169,2.0285,17.8989,17.8989,0,0,1-4.2688.7847,9.44,9.44,0,0,1-5.4492-1.3327q-.2363-.1458-.4723-.2913l-.2536-.479a3.8932,3.8932,0,0,1,1.8769-5.6025,16.2632,16.2632,0,0,1,5.823-1.4833,10.129,10.129,0,0,0,4.024-.6951,8.3126,8.3126,0,0,0,4.0238-4.5335,17.7771,17.7771,0,0,0,1.2234-8.1528c-.3817-6.4169-1.4425-11.7919-3.2981-15.9521a49.0168,49.0168,0,0,0-8.7834-13.2517A63.0241,63.0241,0,0,0,56.366,141.2472c-1.1855-.8407-2.9644-1.9662-5.4039-3.3922-5.4667-3.48-9.7905-6.1625-12.8193-8.1081a73.7176,73.7176,0,0,1-9.2256-7.0644A44.4528,44.4528,0,0,1,18.4931,109.467,25.411,25.411,0,0,1,15.5983,98.44a23.2674,23.2674,0,0,1,3.2234-12.2425,25.6444,25.6444,0,0,1,11.64-10.4155A21.3389,21.3389,0,0,1,38.643,74.09c1.4536-.0634,5.85-.1893,6.9206,2.3139.9365,2.1828-.6191,4.0087-2.5708,4.87a15.1749,15.1749,0,0,1-4.949,1.0615,6.9281,6.9281,0,0,0-2.5636.5133,11.8022,11.8022,0,0,0-5.5673,5.0155,14.1087,14.1087,0,0,0-1.9107,7.5975,16.3837,16.3837,0,0,0,1.7481,6.8336,42.77,42.77,0,0,0,7.471,10.5127,59.68,59.68,0,0,0,10.34,8.7127q7.5693,4.9652,14.8936,10.1449c4.4944,3.1162,8.0958,5.8763,10.75,8.1329a60.9408,60.9408,0,0,1,15.6548,21.5433c2.5455,6.15,3.3393,13.21,2.6386,20.95a25.795,25.795,0,0,1-3.6618,10.9024A19.9814,19.9814,0,0,1,79.4047,200.8621Z"/><path d="M74.0594,200.8577a15.4158,15.4158,0,0,1-3.6895.67,7.0792,7.0792,0,0,1-4.1-1.02,1.73,1.73,0,0,1,.8249-2.65,14.123,14.123,0,0,1,4.9447-1.2237,12.1484,12.1484,0,0,0,4.8566-.9319,10.7008,10.7008,0,0,0,5.1893-5.74,19.966,19.966,0,0,0,1.4231-9.1362c-.3657-6.6772-1.4383-12.2386-3.3774-16.6524a50.4721,50.4721,0,0,0-9.0258-13.7862A64.21,64.21,0,0,0,58.039,139.3784c-1.1206-.8054-2.9182-1.9584-5.426-3.4374-5.42-3.4838-9.6748-6.15-12.6663-8.0915a71.0245,71.0245,0,0,1-8.9312-6.914A42.4985,42.4985,0,0,1,21.04,108.1448,23.7925,23.7925,0,0,1,18.377,97.7913a21.1665,21.1665,0,0,1,2.9663-11.1275,22.0648,22.0648,0,0,1,10.0082-8.9533,17.979,17.979,0,0,1,6.7194-1.338c2.8013-.1076,4.3931.3054,4.7879,1.2063a1.1865,1.1865,0,0,1-.7224,1.7519,11.6,11.6,0,0,1-3.6638.731,10.3015,10.3015,0,0,0-3.8765.8562,15.3122,15.3122,0,0,0-7.189,6.4538A16.0537,16.0537,0,0,0,25.2289,96.1a17.8545,17.8545,0,0,0,1.948,7.4656,44.2879,44.2879,0,0,0,7.8215,10.8819,61.6014,61.6014,0,0,0,10.7285,8.9469q5.9007,3.8275,11.6539,7.7858,1.6491,1.1407,3.2854,2.2921c4.5343,3.1155,8.0737,5.8072,10.6905,8.0077a54.5519,54.5519,0,0,1,7.5949,7.9935,54.7419,54.7419,0,0,1,7.6837,12.7975c2.4637,5.8577,3.2423,12.5228,2.5963,19.97a23.2735,23.2735,0,0,1-3.3113,9.9334,17.5359,17.5359,0,0,1-7.444,6.7778A38.82,38.82,0,0,1,74.0594,200.8577Z"/><path d="M116.942,183.2033c-2.8922,1.0516-5.4685-.0188-6.9146-2.9113l-.857-2.2333c-.0105-.0679-.0207-.136-.0313-.2039a5.4631,5.4631,0,0,0-.1275-.5757q-.6308-.258-1.2633-.5139.0177-.695.037-1.39a14.6324,14.6324,0,0,0-.8492-5.5712c-.8047-2.1377-2.1389-5.2111-3.9771-9.1309q-1.9609-4.697-3.93-9.3907c-1.8384-4.851-4.4173-12.1516-7.6523-21.7663-2.7369-8.6381-5.2126-15.9735-7.4066-21.8136q-1.7815-4.1929-3.57-8.3833c-1.1884-2.4161-2.4246-5.3067-3.6346-8.5124a5.5245,5.5245,0,0,1,.46-5.3407A10.9012,10.9012,0,0,1,82.7,81.8014a8.9848,8.9848,0,0,1,4.6524-.4922c.5953-.13,1.9072-.4442,4.7808-1.1517a53.757,53.757,0,0,1,9.27-1.4786c3.8945-.2765,6.1712.56,6.7348,2.4181.81,2.6885-2.4856,5.375-3.5538,6.2718q-.4317.3569-.8624.7142-.5725.0327-1.1452.0666a78.8623,78.8623,0,0,0-13.514,1.6922c.46,1.1338,1.0632,2.769,1.8238,4.94,1.45,4.142,2.6482,7.9653,3.5667,11.3591,1.0385,3.3284,2.2886,7.0831,3.7355,11.1974a5.2417,5.2417,0,0,0,1.01,1.9138q1.174-.4821,2.35-.958a30.622,30.622,0,0,1,3.1093-1.2261c7.7613-2.5883,10.1964-.5088,10.854,1.6014a6.2922,6.2922,0,0,1-.0835,4.2245,6.0792,6.0792,0,0,1-3.9771,3.4816,9.9,9.9,0,0,1-5.4672.4161q-1.9372.3907-3.8744.7995,1.2348,2.7669,3.8887,10.3405,1.9842,5.6651,3.4442,10.3647,1.71,5.1355,3.4233,10.2694c1.2879,3.6681,2.7945,7.4481,4.4547,11.206.9591,2.3832,1.748,2.7085,1.8348,2.7368.1692.061,1.1471.2853,3.9476-.661q1.314-.5213,2.6316-1.0335a31.3584,31.3584,0,0,1,3.1861-1.1966c5.5348-1.7563,7.3478.0709,7.8835,1.8582.9265,3.1089-1.5915,5.542-7.4324,7.4411Q123.1306,180.9549,116.942,183.2033Z"/><path d="M112.065,179.3138q-.347-.9316-.694-1.8633a9.1047,9.1047,0,0,0-.4876-1.7777q-.4143-.1719-.83-.3429a16.5875,16.5875,0,0,0-.9428-6.3381q-1.2218-3.2991-3.9827-9.2882-1.9182-4.67-3.8437-9.3365-2.6673-7.164-7.4867-21.6893-4.0425-13.0117-7.3055-21.9147-1.7714-4.2364-3.55-8.47-1.8036-3.7329-3.56-8.4658a3.7257,3.7257,0,0,1,.1851-3.5737,7.7646,7.7646,0,0,1,3.8476-2.4526,5.1894,5.1894,0,0,1,3.36-.2165c.2894.0086,2.1972-.4548,5.7377-1.3284a50.52,50.52,0,0,1,8.6549-1.39c2.6068-.1876,4.046.17,4.3172,1.0459.3025.9757-.6082,2.3214-2.6932,4.0527C95.004,86.4171,89.561,87.3,86.543,88.3669q-.32.6-.6374,1.2014a63.5556,63.5556,0,0,1,2.3957,6.1273q2.2083,6.193,3.5928,11.22,1.6187,5.1042,3.8348,11.2953,1.4446,4.03,3.9017,3.158,1.3785-.5654,2.76-1.1216a29.0391,29.0391,0,0,1,2.9447-1.1665c4.59-1.5408,7.1756-1.3838,7.7305.3624a4.4036,4.4036,0,0,1-.0153,2.9756,3.3347,3.3347,0,0,1-2.2618,1.9389,6.5085,6.5085,0,0,1-4.3927.1762q-2.9083.5817-5.8168,1.2035-.4353.1538-.8707.3084-.3062.5136-.61,1.0277l.1544.4322a116.78,116.78,0,0,1,4.4007,11.2547q2.003,5.6185,3.482,10.2848,1.743,5.1417,3.49,10.282,2.0073,5.6166,4.5851,11.3533c.8882,2.1732,1.927,3.4522,3.1068,3.8493,1.1774.3957,2.996.1621,5.4631-.6695q1.3662-.54,2.7357-1.0706a29.8575,29.8575,0,0,1,3.0513-1.15c2.998-.9568,4.6993-.7754,5.0857.4894.5358,1.7577-1.4535,3.3081-5.9407,4.7682q-6.2745,2.0489-12.4958,4.3092C114.3966,181.8693,113.0152,181.2448,112.065,179.3138Z"/><path d="M150.8269,172.5707c-1.51.3979-4.3048.4428-6.18-3.8809l-.1926-.4458q.0158-.2427.032-.4855a22.7729,22.7729,0,0,0-.9726-4.2761c-2.5163-9.0564-6.1261-22.6453-10.6672-40.4005-4.5047-17.6335-7.855-30.57-10.0228-38.4377q-.5549-2.7642-1.1053-5.5295-.3285-2.3359-.6511-4.673c-.4564-1.6062.87-3.3336,3.2709-3.9686a14.9739,14.9739,0,0,1,3.7309-.3826q1.2957-.0069,2.5895-.0067l.3738,1.4886q.8353,3.3274,1.3212,6.0977,2.7481,10.9159,5.4961,21.8316c1.3089,4.6837,2.727,10.0728,4.2453,16.1183.0173.07.035.1394.0524.2091l.0025.219a16.2882,16.2882,0,0,0,.5871,2.8806q.3151,1.6273.6313,3.2544c.3767,1.9811.825,3.9845,1.34,6.0248q.8459,3.35,1.7091,6.0742.9521,3.3963,1.901,6.7932-.0687.4492-.1369.8986a3.1522,3.1522,0,0,1,.0656.9617l.0353.1394a2.4416,2.4416,0,0,0,.5514,1.0987q.1863.2.3724.4,1.5981,7.44,3.2146,14.875.1053.4125.21.8253c.1971.78.347,1.3181.4563,1.6845-.0022-.02,7.2433-1.5114,7.3108-1.5066,2.3039-.5372,3.9544-.8775,4.8626-1.0272.8463-.1357,1.3649-.2224,1.5609-.2649q.2389-.0517.4777-.1031a4.487,4.487,0,0,1,3.5342.8168,4.5421,4.5421,0,0,1,2.0079,2.8487c.3668,1.8164-.42,4.0574-3.7026,4.9705-1.9483.3291-6.156,1.1761-12.711,2.8045l.0006.1567a25.36,25.36,0,0,0-2.54.7718A15.5029,15.5029,0,0,1,150.8269,172.5707Z"/><path d="M146.7228,167.8334a22.0806,22.0806,0,0,0-1.014-4.9545q-3.6894-13.5732-10.4338-40.4242-6.6652-26.7084-9.8191-38.5274-.5258-2.7093-1.0474-5.42-.3089-2.2923-.6124-4.5855-.2767-1.0335,1.0851-1.3957a11.941,11.941,0,0,1,2.8333-.2658q.31-.0016.6207-.0028.8376,3.2577,1.3286,5.9743.7434,2.8867,1.4867,5.7737l4.1565,16.1431q2.0136,7.0592,4.3346,16.0944a18.2844,18.2844,0,0,0,.66,3.3052q.3134,1.5769.6275,3.1537.59,3.0091,1.3949,6.1145.8793,3.4055,1.7742,6.1737.9052,3.1622,1.8079,6.325-.0977.6561-.1938,1.3124l.13-.1908a.8079.8079,0,0,1-.0152.6352q.0767.2958.1531.5916a4.3661,4.3661,0,0,0,1.0318,1.9471q1.5825,7.1711,3.1822,14.3383.115.4443.23.8888a14.8815,14.8815,0,0,0,.9258,2.92.6951.6951,0,0,0,.9764.5369q4.1315-.9,8.2726-1.7119c2.4183-.5658,4.0866-.91,4.993-1.06q1.3608-.22,1.6793-.2881.2376-.0514.4752-.1026a2.2972,2.2972,0,0,1,1.7577.4847,2.528,2.528,0,0,1,1.1492,1.5557c.25,1.197-.4517,2.0194-2.0966,2.478-1.7982.2894-6.1421,1.1613-12.9926,2.8727l.3494.0694a26.8912,26.8912,0,0,0-2.9179.8975,12.8578,12.8578,0,0,1-2.7143,1.0276C148.8336,170.903,147.6516,170.011,146.7228,167.8334Z"/><path d="M184.5423,165.1613c-2.9985.5251-5.3252-.9837-6.24-4.0849q-.2271-1.1744-.4538-2.3486l.0042-.2062a5.3856,5.3856,0,0,0-.026-.5889q-.57-.3653-1.1428-.7289.1355-.6807.2731-1.361a14.7985,14.7985,0,0,0,.1227-5.6311c-.42-2.2451-1.1947-5.505-2.3169-9.686q-1.1089-4.9674-2.2262-9.9333c-.9639-5.0973-2.23-12.7355-3.742-22.7664-1.1931-8.9825-2.3534-16.6361-3.4945-22.77q-1.02-4.44-2.048-8.8786c-.7451-2.5864-1.4566-5.65-2.0886-9.017a5.5455,5.5455,0,0,1,1.3589-5.1733,10.6947,10.6947,0,0,1,5.96-2.64,8.8215,8.8215,0,0,1,4.62.3348c.6032-.023,1.9356-.1016,4.86-.293a52.9208,52.9208,0,0,1,9.2994.1711c3.85.41,5.93,1.6316,6.1616,3.56.3305,2.7889-3.349,4.8559-4.5446,5.5518q-.4827.2755-.9643.5519-.5644-.0682-1.1292-.1352a77.7191,77.7191,0,0,0-13.4726-.7082c.2554,1.1971.5634,2.9118.934,5.1825.7066,4.3312,1.2213,8.3044,1.5367,11.806.4434,3.4584,1.0209,7.3735,1.7287,11.6766a5.3007,5.3007,0,0,0,.6576,2.0613q1.2269-.2681,2.4553-.5294a29.9272,29.9272,0,0,1,3.2422-.66c8.0152-1.1851,10.0385,1.2877,10.3181,3.48a6.3312,6.3312,0,0,1-.8051,4.1437,5.9986,5.9986,0,0,1-4.4776,2.73,9.7216,9.7216,0,0,1-5.4045-.5508q-1.9561.0443-3.9148.1054.7318,2.94,2.0245,10.86.9661,5.9246,1.5871,10.8059.7894,5.3545,1.583,10.7085c.6289,3.8369,1.4524,7.821,2.4285,11.8116.5283,2.5137,1.2415,2.9732,1.3213,3.0162.1541.0892,1.07.483,3.963.0436q1.3711-.2824,2.7443-.5552a30.899,30.899,0,0,1,3.3141-.619c5.7036-.7585,7.163,1.3563,7.3792,3.21.3719,3.2214-2.5054,5.1781-8.5309,6.0228Q190.957,164.04,184.5423,165.1613Z"/><path d="M180.454,160.4739q-.1791-.9778-.3582-1.9557a9.1855,9.1855,0,0,0-.1718-1.8353q-.3743-.2421-.75-.4838a16.7486,16.7486,0,0,0,.1626-6.4024q-.627-3.46-2.2954-9.8418-1.072-4.9331-2.1521-9.8646-1.3761-7.52-3.5935-22.6616-1.7188-13.5158-3.3788-22.8515-1.0029-4.4808-2.0133-8.96-1.1213-3.9913-2.0242-8.958a3.7434,3.7434,0,0,1,.79-3.4836,7.6128,7.6128,0,0,1,4.1685-1.7349,5.0989,5.0989,0,0,1,3.3123.3787c.281.06,2.22-.06,5.8226-.2984a49.7955,49.7955,0,0,1,8.6833.1505c2.576.2719,3.9207.876,4.0356,1.7858.1281,1.0134-.9921,2.1786-3.3235,3.5175-7.68-.9195-13.1369-1.0091-16.2611-.49q-.4142.5348-.8266,1.07A64.3336,64.3336,0,0,1,171.57,74.006q1.0941,6.4828,1.5859,11.6738.7055,5.3076,1.8089,11.79.72,4.22,3.264,3.7948,1.44-.3138,2.8834-.6182a28.5072,28.5072,0,0,1,3.0714-.63c4.7412-.7108,7.2392-.1027,7.4812,1.7132a4.4345,4.4345,0,0,1-.5244,2.9263,3.2876,3.2876,0,0,1-2.5392,1.5116,6.3986,6.3986,0,0,1-4.3155-.5979q-2.9366.0615-5.878.1614-.4509.0746-.9016.15-.3858.4515-.77.9038.0384.2262.0767.4526a117.86,117.86,0,0,1,2.3675,11.85q.9926,5.8827,1.6375,10.7339.821,5.3667,1.6461,10.7327.9965,5.881,2.53,11.98.7426,3.4424,2.3711,4.335c1.08.5965,2.8929.6869,5.4421.3018q1.425-.2918,2.8522-.5734a29.33,29.33,0,0,1,3.1746-.5963c3.09-.4158,4.72.0595,4.8814,1.3726.2216,1.8244-1.9869,3.0028-6.6159,3.6525q-6.4737.9157-12.9225,2.0432C182.29,163.4,181.05,162.5414,180.454,160.4739Z"/><path d="M231.71,160.2358q-2.1223-.642-4.2594-1.2613a18.629,18.629,0,0,1-5.9968-2.5174,19.7149,19.7149,0,0,1-5.1239-5.2615c-2.8113-4.12-4.9076-10.1472-6.1764-17.9771-.5725-3.3909-1.01-6.4906-1.2884-9.2055q-.8881-8.67-1.7763-17.3391c-.6792-6.6354-1.1021-13.1553-1.2257-19.3825a76.9138,76.9138,0,0,1,.5773-12,40.422,40.422,0,0,1,2.9247-10.2121,19.2451,19.2451,0,0,1,6.3444-8.2951,24.7205,24.7205,0,0,1,5.87-2.836q2.4823-.9,4.7067-1.8862.288-.1276.5764-.2548,5.2371-.2741,10.478-.44l.3219.2361q.6445.0768,1.2881.1554.7456.3993,1.4889.8006l.1424.1015a3.732,3.732,0,0,1,1.3144,1.41,3.4528,3.4528,0,0,1,.3732,1.5821q.0088.3953.0176.7906-2.0037,1.859-3.9776,3.7335-4.7754.1446-9.5483.38a6.72,6.72,0,0,0-4.5821,2.32A15.6222,15.6222,0,0,0,220.517,69.45a43.809,43.809,0,0,0-1.8155,8.8944,66.93,66.93,0,0,0-.4628,8.8568c-.0079,4.0136.0674,5.8266.1291,6.6513q.0154.2054.0309.4109-.1561.3943-.3116.7889c.4136,5.518.6771,10.5982.7918,15.11q.4137,7.6867.84,15.3728a70.215,70.215,0,0,0,1.903,11.8937,20.6617,20.6617,0,0,0,5.0618,9.7438c2.2738,2.5948,5.493,3.7088,9.9394,3.5245a3.7581,3.7581,0,0,0,2.5133-.9284q.3113-.2835.6235-.5664.4323-.0144.8641-.0279c3.463-.1043,4.7308,1.9351,4.762,3.6878.035,1.9043-1.5757,3.3505-2.7782,4.28a20.0582,20.0582,0,0,1-4.5011,2.6533q-.188.079-.3759.1586Q234.72,160.0721,231.71,160.2358Z"/><path d="M228.1,156.9407a16.4742,16.4742,0,0,1-5.37-2.2329,17.642,17.642,0,0,1-4.5153-4.6978c-2.6149-3.866-4.5471-9.5672-5.73-17.1356q-.8408-5.14-1.2238-9.1-.84-8.6743-1.6808-17.3487c-.6395-6.5946-1.0214-13.0118-1.1108-19.2507a74.9008,74.9008,0,0,1,.6233-11.7287,38.6877,38.6877,0,0,1,2.8487-9.7662,17.3317,17.3317,0,0,1,5.5684-7.337,22.6958,22.6958,0,0,1,5.226-2.4915c1.6915-.6128,3.3283-1.2663,4.8958-1.958q4.0011-.2042,8.0041-.3448.3-.0105.6008-.0207a.9678.9678,0,0,0,.6058.1319q.5019.06,1.0034.12.4068.2171.813.4348.614.4426.6172.5965a1.6855,1.6855,0,0,1,.2274.9094q-1.2639,1.1831-2.5155,2.3722-4.1661.1365-8.33.3423a9.6553,9.6553,0,0,0-6.6559,3.2079,17.3963,17.3963,0,0,0-4.1158,7.4049,45.0347,45.0347,0,0,0-1.8243,9.1828,68.3367,68.3367,0,0,0-.423,9.0846c.0106,3.273.072,5.5178.1708,6.7361q-.1544.3952-.3076.7907.6975,8.5371.904,15.4221.4564,7.7107.9252,15.42a72.0136,72.0136,0,0,0,2.03,12.261,22.6622,22.6622,0,0,0,5.599,10.6193c2.7221,3.0865,6.61,4.4659,11.7509,4.2531a6.08,6.08,0,0,0,3.98-1.5218c1.6152-.05,2.435.4928,2.4627,1.6153.0181.7137-.63,1.5694-1.9327,2.5765a17.6551,17.6551,0,0,1-3.9836,2.3595q-2.6211.1058-5.241.2455Q230.0537,157.5077,228.1,156.9407Z"/><path d="M271.2123,158.5121a5.0125,5.0125,0,0,1-4.1437-2.26,6.9055,6.9055,0,0,1-1.0424-4.04q.4221-13.6029.8439-27.206.2063-12.2181.3934-24.4365c-.0326-11.07.0073-19.0944.166-24.4982q.1628-2.2513.328-4.5027.1441-4.93.2884-9.86c.2495-8.4692.2838-12.4879.2568-14.3894q-10.1589-.2953-20.3225-.1877a10.6511,10.6511,0,0,1-4.4319-.86c-1.7307-.7576-2.713-1.9734-2.7487-3.4334a3.6843,3.6843,0,0,1,1.367-3.21c.9117-.7,2.3158-1.1233,4.8682-1.4487a52.7178,52.7178,0,0,1,8.6873-.5178q10.3207.0457,20.6358.5,11.333.4229,22.65,1.339A9.5519,9.5519,0,0,1,304.217,41.14a4.0154,4.0154,0,0,1,1.516,3.7421c-.22,2.1282-2.1973,4.2008-7.093,3.7612q-8.4819-.7514-16.9809-1.22-.1112,3.4295-.2246,6.8588-2.4048,43.3019-4.81,86.6036-.24,5.8071-.4845,11.6138a13.4941,13.4941,0,0,1-.33,2.4216,4.54,4.54,0,0,1-1.1889,2.1789A4.0034,4.0034,0,0,1,271.2123,158.5121Z"/><path d="M268.9577,155.1444a4.8375,4.8375,0,0,1-.6949-2.857l.4968-13.5991q.2484-6.8008.4968-13.6018.2742-12.2305.5288-24.4616c.0277-10.9122.1123-19.069.3-24.4693q.1734-2.2131.3485-4.4262.1735-4.9662.347-9.9325.579-16.5029.1685-16.5185-11.4918-.3921-22.9912-.27a7.0506,7.0506,0,0,1-2.9613-.5713,1.8847,1.8847,0,0,1-1.3583-1.66,1.9885,1.9885,0,0,1,.5838-1.6923,8.4948,8.4948,0,0,1,3.2732-.811,50.1568,50.1568,0,0,1,8.2176-.4877q10.2786.0456,20.5517.4978,11.2995.4215,22.5836,1.3352a6.55,6.55,0,0,1,3.323.9163,2.2008,2.2008,0,0,1,.7313,2.067c-.1482,1.5229-1.5057,2.1547-4.0747,1.9258q-4.57-.4049-9.1458-.728-4.4726-.3159-8.9486-.5538-.9185.0272-1.8363.0579-.1189,4.4337-.2408,8.8674-.2979,5.9574-.596,11.9147-1.5505,31.002-3.1014,62.004-.3171,6.3369-.634,12.6742-.2,5.6548-.405,11.3095l-.0154.3066a11.4985,11.4985,0,0,1-.2633,2.0524,2.3606,2.3606,0,0,1-.7032,1.2666,1.751,1.751,0,0,1-1.6311.6912A2.7426,2.7426,0,0,1,268.9577,155.1444Z"/><path d="M326.3618,165.2751c-2.2192-.41-3.4826-.9526-4.2281-1.8405-.7431-.8754-1.0363-2.1846-.9749-4.37.288-7.5326.4346-12.2222.5186-14.0719q.0642-2.3.1216-4.6012a39.061,39.061,0,0,0-6.1681-1.3942q-3.043-.6072-6.0952-1.17c-2.0737-.513-3.6512-.8535-4.7742-1.0431q-.27,1.1483-.5377,2.2969a110.9612,110.9612,0,0,1-3.1562,10.89,29.45,29.45,0,0,1-2.8831,6.6464c-.64.99-2.2932,3.5934-4.7873,3.3425a5.7736,5.7736,0,0,1-3.2976-1.619,4.2641,4.2641,0,0,1-1.6539-3.5871q.015-.1722.03-.3444.2694-.5983.54-1.1965c2.4741-6.8117,4.8125-13.8193,6.8458-20.7033q1.4915-4.6368,3.0275-9.2646,1.628-5.6369,3.31-11.2631,1.5243-4.9173,3.0921-9.8255c.9256-2.7005,2.5412-7.0445,4.8933-12.9246,2.5273-6.5549,4.2121-11.1038,4.9013-13.5248q.0286-.1008.0575-.2017l.1068-.1871c.001-.0277.2705-.83,1.31-5.0593,1.0429-3.8917,1.87-6.65,2.5255-8.469,1.04-3.6111,1.664-4.6387,2.4345-5.2347q.4727-.3644.9463-.7278,1.6184.222,3.2355.4545.2076.0858.4152.1717a2.1758,2.1758,0,0,0,.5062.1153,3.2105,3.2105,0,0,0,1.6673-.0506q.4527-.2485.9063-.4962.5759.0867,1.1516.1748a8.0109,8.0109,0,0,1,4.06,1.82,3.8,3.8,0,0,1,1.5784,3.5539A121.1835,121.1835,0,0,0,334.59,78.1483q-.0553,4.9591-.2267,8.2194c-.8725,13.1473-1.5066,38.2736-3.6151,74.5018l-.1216.7171a4.6592,4.6592,0,0,1-3.0475,3.5841q-.2957.11-.5905.2211Q326.6755,165.3333,326.3618,165.2751Zm-18.9412-36.2458c.74.2418,2.0276.6,4.2179,1.106,3.783.8818,7.2066,1.6,10.21,2.1122.924-11.8717,1.8561-28.2033,2.4362-48.74q-5.3466,12.8178-10.3214,25.7368C309.5778,120.7528,307.9986,126.35,307.4206,129.0293Z"/><path d="M323.8516,162.1162c-.36-.4262-.51-1.41-.459-2.9534.3281-7.4943.499-12.172.593-14.0188q.1028-3.0851.1931-6.1715a38.5852,38.5852,0,0,0-8.2365-2.0763q-2.9932-.5984-5.9957-1.1542a52.5825,52.5825,0,0,0-5.8248-1.1994c-.6752-.0807-1.0989.1291-1.2669.6218-.036.3025-.1105.45-.2231.4362q-.3437,1.5-.6849,3a110.3127,110.3127,0,0,1-3.0513,10.7336,27.535,27.535,0,0,1-2.6261,6.1737c-1.0392,1.636-1.9187,2.4128-2.66,2.3388a3.5647,3.5647,0,0,1-1.9853-1.0384,2.2905,2.2905,0,0,1-.9539-1.8557q.1005-.22.2012-.44t.2021-.4423c2.5968-7.0263,4.97-14.01,7.0645-20.9671q1.5087-4.6074,3.0619-9.2052,1.6689-5.6629,3.3921-11.315,1.5478-4.9009,3.139-9.7926c.9287-2.663,2.5451-6.9347,4.9251-12.8,2.6071-6.6582,4.32-11.2109,5.0391-13.6876a55.0117,55.0117,0,0,0,1.5212-5.5046q1.5484-5.6514,2.5228-8.297,1.1358-3.855,1.819-4.3792.6953.0972,1.3907.1967a5.7784,5.7784,0,0,0,1.3683.351,5.976,5.976,0,0,0,3.71-.3742,4.6072,4.6072,0,0,1,2.3755,1.0662,1.9371,1.9371,0,0,1,.84,1.7606,122.5615,122.5615,0,0,0-1.3263,16.8228q-.0278,4.959-.1817,8.1841c-.8058,13.1986-1.2938,38.1242-3.2174,74.5857q-.0424.2256-.0851.4511a2.5205,2.5205,0,0,1-1.6826,2.02A5.5107,5.5107,0,0,1,323.8516,162.1162Zm.1726-27.3557c1.2755-14.667,2.6307-36.4016,3.2977-65.2734q-8.2944,19.3929-15.735,39.02c-4.2369,11.2744-6.3786,18.469-6.752,21.5029-.0608.5087,2.0394,1.2065,6.2743,2.1854,4.2347.9857,7.9675,1.7586,11.23,2.2878Q323.1817,134.62,324.0242,134.7605Z"/><path d="M344.22,169.3192a5.1755,5.1755,0,0,1-3.34-2.4154,5.2978,5.2978,0,0,1-.6284-3.9512q.4227-2.298.8436-4.5966c.8064-3.6845,2.3066-9.0015,4.5239-15.86,2.2329-7.5155,3.6944-12.6769,4.281-15.3088q.66-3.3536,1.3171-6.7075c.3226-1.9879.7584-4.2252,1.299-6.6518.8941-4.0106,2.4073-9.975,4.5277-17.7153,2.1983-8.0714,3.7007-13.8585,4.5656-17.7005q.8015-3.975,1.6-7.9507-.3113-.4681-.624-.936.1811-.8124.3625-1.6248c.8247-3.7262,3.9031-5.39,8.2229-4.3657,2.4219.5775,5.9517,2.11,10.7134,4.7619,5.1945,2.9107,8.0748,5.1,7.61,7.254a26.1942,26.1942,0,0,1,2.138,9.98A43.0462,43.0462,0,0,1,389.5938,97.21a55.1961,55.1961,0,0,1-6.554,14.8285q.3352.0971.67.1949-1.23,1.24-2.4513,2.4855a48.1052,48.1052,0,0,1-4.1327,3.201q-.8755.63-1.7478,1.2637a19.7757,19.7757,0,0,1,2.7826,6.7326,24.8693,24.8693,0,0,1,.45,9.0843c-.156.9491-.3606,2.0819-.6309,3.4123q-.4056,1.9823-1.0239,4.6865-.4866,1.9482-.9748,3.8963-.3161,1.0659-.6326,2.1315c-2.9955,10.01-8.7706,16.46-16.8412,19.547A23.8612,23.8612,0,0,1,344.22,169.3192Zm17.7665-48.4749c-2.2522,7.0374-3.961,12.9932-5.1248,17.7163q-.42,1.7078-.8407,3.4156a37.1262,37.1262,0,0,0-1.1365,6.5811q-.0183.3784-.037.7572-.2756.2721-.551.5446c-.0721.0792-.8121,1.005-2.0329,5.993q-.4737,1.9311-.9473,3.8621-.05.2682-.1.5364a10.4886,10.4886,0,0,0,4.067-.7954,15.99,15.99,0,0,0,5.9756-4.2044,15.101,15.101,0,0,0,3.5045-6.1154c.0227-.0835.0454-.1673.0682-.2508q.1614-.2727.3233-.5455.3477-1.2768.6951-2.5535a56.7,56.7,0,0,0,1.9641-11.7444c.0959-4.765-1.0154-8.59-3.3168-11.2686A8.0821,8.0821,0,0,0,361.9865,120.8443Zm2.0688-9.6382c5.9381,1.1919,10.5014-3.889,13.5891-15.2963.2782-1.0362.716-3.16,1.2991-6.3225q.2045-1.0359.4084-2.072-.1207-.1611-.2421-.3222.04-.3685.0795-.7372a27.5494,27.5494,0,0,0-.0382-7.7438,5.4849,5.4849,0,0,0-1.5782-2.9806,5.8667,5.8667,0,0,0-2.2293-1.4258c-.8485.6925-3.1864,3.7282-6.4122,16.8324a44.953,44.953,0,0,0-1.0216,4.8607q-1.0124,4.1238-2.0247,8.2475c-.5376,1.6444-1.0234,3.3707-1.5,5.3007q-.179.7235-.3575,1.447Z"/><path d="M342.8,165.8707a3.1811,3.1811,0,0,1-.36-2.4319q.4422-2.33.8826-4.66c.8058-3.58,2.3065-8.7814,4.5487-15.5914,2.3151-7.6275,3.8007-12.776,4.4154-15.4607q.6833-3.3728,1.3645-6.7458.5058-3.02,1.3253-6.5988,1.3635-5.9606,4.6061-17.6122,3.324-11.9457,4.6834-17.7527.9013-4.3428,1.799-8.6864-.303-.4614-.6074-.9226.1026-.4476.2048-.895c.5884-2.5818,2.2637-3.5658,5.0176-2.9128,2.0967.5,5.39,1.9476,9.8189,4.4119,4.4253,2.4745,6.4936,4.1447,6.2782,4.9273q-.0612.2213-.122.4425a24.7472,24.7472,0,0,1,2.2832,9.8529,41.2842,41.2842,0,0,1-1.91,11.2252c-2.0683,7.1493-4.7323,12.6916-7.8995,16.6677l.177.05a46.6793,46.6793,0,0,1-3.9051,3.0389q-1.6636,1.2065-3.3117,2.4249a16.5783,16.5783,0,0,1,3.6464,7.51,23.0275,23.0275,0,0,1,.4667,8.4057c-.1447.9114-.34,2.0234-.5972,3.328q-.39,1.96-.99,4.6482-.4713,1.9335-.9445,3.8667-.3,1.0272-.5991,2.0548c-2.7544,9.4-7.9958,15.3731-15.4467,18.2355a21.44,21.44,0,0,1-12.9224.5595A2.8915,2.8915,0,0,1,342.8,165.8707Zm13.4258-4.4463a18.198,18.198,0,0,0,6.8182-4.7554,17.0266,17.0266,0,0,0,3.9908-6.91q.1629-.2718.3263-.5436.1642-.59.3282-1.18.2255-.81.4507-1.62a58.19,58.19,0,0,0,2.0924-12.1147c.1367-5.3537-1.1223-9.6072-3.7894-12.7222a11.541,11.541,0,0,0-6.1708-3.5918c-2.5806,8.0814-4.4756,14.7538-5.7389,20.0075q-.4108,1.71-.8218,3.42a38.6341,38.6341,0,0,0-1.1516,6.956q-1.1453,1.14-2.5288,6.9405-.4629,1.9335-.9259,3.8673-.2578,1.4323-.5166,2.8648A12.4024,12.4024,0,0,0,356.2256,161.4244Zm6.9053-48.25c7.7772,1.926,13.45-3.4917,17.0787-16.5683q.4461-1.62,1.364-6.4445.29-1.4273.5792-2.8547-.1488-.1983-.298-.3966a28.971,28.971,0,0,0-.0181-8.2423,7.6817,7.6817,0,0,0-2.2022-4.1394,9.1377,9.1377,0,0,0-4.3264-2.4467q-4.29-1.0719-8.9681,18.4243a45.9588,45.9588,0,0,0-1.0349,5.0983q-.3591,1.4865-.7182,2.973-.61,2.5267-1.2206,5.0535-.7569,2.335-1.4711,5.3089-.2148.8913-.43,1.7824.07.489.14.9781.053.5635.1052,1.1267Q362.42,112.9992,363.1309,113.174Z"/><path d="M385.2527,181.5534c-1.4821-.5211-3.8312-2.0562-2.9592-6.6875q.0452-.2387.09-.4772l.2992-.3837a22.6176,22.6176,0,0,0,1.5954-4.085c2.9985-8.9082,7.6357-22.1821,13.84-39.4262,6.1662-17.1233,10.6533-29.711,13.2729-37.44q1.0929-2.5991,2.1894-5.1966,1.04-2.1174,2.0857-4.2325c.5233-1.5854,2.598-2.2693,4.9546-1.4423a15.1616,15.1616,0,0,1,3.3247,1.7849q1.0843.7245,2.164,1.4539-.2629.7209-.526,1.4419-1.1758,3.2226-2.33,5.7879l-7.7032,21.1539c-1.5441,4.6112-3.3945,9.8677-5.53,15.7235l-.0738.2026c-.04.0608-.0812.1217-.1214.1825a16.1539,16.1539,0,0,0-1.1316,2.7133q-.6531,1.5235-1.3051,3.0475-1.2006,2.7764-2.2734,5.738-1.1811,3.2474-1.993,5.9872-1.1174,3.3453-2.2378,6.69-.31.333-.62.6661a3.1538,3.1538,0,0,1-.4865.8324l-.0491.1352a2.4173,2.4173,0,0,0-.1583,1.2194q.043.27.0859.54-2.8544,7.0537-5.691,14.1144-.1443.4007-.2891.8012c-.2742.7563-.4519,1.2859-.5674,1.65.0066-.0187,6.9019,2.8362,6.9569,2.88,2.2309.8574,3.8056,1.5094,4.6516,1.9q1.1786.55,1.4582.6646.2293.0922.4588.1851a4.574,4.574,0,0,1,2.506,2.6771,4.5062,4.5062,0,0,1,.08,3.4922c-.7161,1.709-2.6436,3.1147-5.9129,2.01-1.8194-.8313-5.8273-2.5128-12.2173-4.8627l-.0877.13a25.74,25.74,0,0,0-2.5539-.7934A15.6748,15.6748,0,0,1,385.2527,181.5534Z"/><path d="M384.5007,175.3247a21.98,21.98,0,0,0,1.9422-4.67q4.5615-13.3059,14.0482-39.3144,9.4734-25.8465,13.4933-37.399,1.086-2.5374,2.1761-5.0733,1.0319-2.07,2.069-4.1381.3515-1.0107,1.6889-.5436a12.0655,12.0655,0,0,1,2.51,1.3757q.26.1736.5193.3474-1.135,3.1662-2.2543,5.69-1.0044,2.8067-2.01,5.6132-2.8093,7.847-5.6188,15.6941-2.2929,6.9729-5.4427,15.7542a18.1,18.1,0,0,0-1.3093,3.1058q-.6267,1.481-1.2516,2.962-1.2012,2.8214-2.278,5.8434-1.1827,3.312-1.9947,6.1059-1.0247,3.1255-2.0519,6.25-.45.4878-.9.9763l.2158-.0845c-.104.2888-.2273.4624-.37.5169q-.1026.2877-.2052.5755a4.339,4.339,0,0,0-.2356,2.1918q-2.7159,6.8232-5.4154,13.6523-.1547.4324-.3084.8648a14.75,14.75,0,0,0-.8712,2.9365.6985.6985,0,0,0,.512.9943q3.9519,1.5836,7.8741,3.2512c2.3428.8981,3.9346,1.5578,4.7785,1.9465.8418.3911,1.3679.63,1.5706.7123.1524.0613.3042.1227.4566.1842a2.3384,2.3384,0,0,1,1.2013,1.3959,2.51,2.51,0,0,1,.0876,1.9369c-.4662,1.1306-1.5189,1.4126-3.1573.86-1.67-.7783-5.8092-2.5177-12.49-4.9648q.1264.127.2525.2543a27.2293,27.2293,0,0,0-2.94-.9022,13.0137,13.0137,0,0,1-2.84-.6786C384.5309,179.0515,384.05,177.6488,384.5007,175.3247Z"/><path d="M420.0536,195.5841c-2.82-1.2934-3.912-3.8687-2.9119-6.9445q.4789-1.0959.9579-2.1919l.1212-.167a5.17,5.17,0,0,0,.3136-.4993q-.27-.6279-.5429-1.2552.5015-.4818,1.0047-.9625a14.5706,14.5706,0,0,0,3.3133-4.56c.9283-2.0875,2.1356-5.212,3.5775-9.2949q1.9008-4.7215,3.7944-9.4463c2.0971-4.7448,5.3886-11.7526,9.8384-20.8692,4.1193-8.0706,7.5082-15.0311,10.048-20.73q1.6748-4.2369,3.3429-8.4767c.8491-2.5549,1.9973-5.4815,3.3875-8.6138a5.51,5.51,0,0,1,4.09-3.4733,11.0411,11.0411,0,0,1,6.5156,1.2571,9.1622,9.1622,0,0,1,3.6985,2.9372c.5206.3293,1.6881,1.0325,4.2643,2.5643a55.3781,55.3781,0,0,1,7.7583,5.5226c3.0223,2.5689,4.0878,4.7827,3.1831,6.5-1.3132,2.4816-5.6106,2.0421-7.0192,1.9212q-.5658-.0535-1.1308-.1057-.4386-.3833-.8777-.7655a80.9323,80.9323,0,0,0-10.9645-8.3675c-.4679,1.1308-1.1864,2.718-2.1705,4.7978-1.8763,3.9671-3.711,7.5289-5.4424,10.589-1.6008,3.0976-3.3474,6.6489-5.2069,10.5934a5.19,5.19,0,0,0-.6222,2.0732q1.1859.4871,2.37.9809a31.2435,31.2435,0,0,1,3.1108,1.33c7.4421,3.6595,7.7485,6.8711,6.7315,8.8325a5.9369,5.9369,0,0,1-8.3916,2.5856,10.1227,10.1227,0,0,1-4.2466-3.5762q-1.6749-1.0932-3.359-2.1717-1.0617,2.8375-4.4921,10.0931-2.5658,5.4252-4.8295,9.7961-2.3906,4.856-4.777,9.7137c-1.66,3.5162-3.2406,7.2653-4.6945,11.1077-.99,2.3708-.6509,3.1594-.6082,3.2408.08.1626.6248,1.013,3.3165,2.3234q1.3182.56,2.6335,1.13a32.2508,32.2508,0,0,1,3.154,1.41c5.2582,2.6829,5.29,5.2733,4.4137,6.9194-1.5246,2.863-5.0854,2.7922-10.6592-.0021Q426.0867,198.3522,420.0536,195.5841Z"/><path d="M419.2913,189.38q.4069-.907.8143-1.8139a9.008,9.008,0,0,0,.9022-1.6077q-.1761-.4142-.3536-.8284a16.5023,16.5023,0,0,0,3.7873-5.1707q1.4469-3.2061,3.6839-9.4109,1.9125-4.6722,3.8174-9.3474,3.1328-6.9741,9.9037-20.6974,6.2639-12.1,10.1923-20.73,1.7124-4.2607,3.4181-8.5241,1.3339-3.9259,3.4079-8.5285a3.714,3.714,0,0,1,2.65-2.41,7.8747,7.8747,0,0,1,4.4944.9721,5.2788,5.2788,0,0,1,2.5723,2.2195c.203.2109,1.9032,1.2289,5.0781,3.1148a52.0067,52.0067,0,0,1,7.2484,5.1479c2.0225,1.7166,2.8184,2.9937,2.3948,3.8076-.4691.9065-2.0844,1.2135-4.8214.9614-5.97-5.2064-10.5138-8.4243-13.44-9.7983q-.6537.2008-1.306.4034a62.9615,62.9615,0,0,1-2.5961,6.0452q-2.777,5.96-5.3252,10.509-2.4338,4.7692-5.2043,10.7332-1.8009,3.8838.5826,4.9995,1.392.5725,2.7816,1.1546a29.6109,29.6109,0,0,1,2.95,1.2554c4.4055,2.1557,6.1736,4.1047,5.3407,5.7362a4.3634,4.3634,0,0,1-2.1145,2.1,3.41,3.41,0,0,1-3.0088-.2282,6.6612,6.6612,0,0,1-3.3013-2.9861q-2.5118-1.6455-5.0455-3.2583-.4222-.1985-.8446-.3961-.5826.1487-1.1639.2992-.097.2082-.1936.4162a115.5294,115.5294,0,0,1-4.7683,11.1041q-2.52,5.4057-4.7455,9.766-2.3709,4.8838-4.7378,9.77-2.5155,5.4081-4.7051,11.3044c-.8928,2.1712-1.0469,3.8137-.477,4.9292.57,1.1129,2.0433,2.2318,4.4147,3.3883q1.3689.5835,2.735,1.1779a30.656,30.656,0,0,1,3.0231,1.3482c2.8513,1.448,3.96,2.7884,3.3469,3.9593-.8534,1.628-3.4,1.3093-7.6823-.8357q-5.9922-2.9946-12.0573-5.7771C419.1636,192.84,418.6133,191.4224,419.2913,189.38Z"/><path class="cls-1" d="M85.1322,194.73a40.6124,40.6124,0,0,1-4.7168,2.0286,17.8877,17.8877,0,0,1-4.2688.7847,9.4413,9.4413,0,0,1-5.4493-1.3327q-.2361-.1458-.4722-.2913-.1269-.24-.2537-.4791a3.8932,3.8932,0,0,1,1.8768-5.6024,16.2534,16.2534,0,0,1,5.8231-1.4834,10.12,10.12,0,0,0,4.024-.6952,8.3148,8.3148,0,0,0,4.0238-4.5333,17.7788,17.7788,0,0,0,1.2234-8.1529c-.3812-6.4168-1.4421-11.7918-3.298-15.9521a48.9878,48.9878,0,0,0-8.7835-13.2517,63.0443,63.0443,0,0,0-12.7675-10.6541c-1.185-.841-2.9648-1.9662-5.4039-3.3921-5.4662-3.48-9.7909-6.1624-12.8193-8.1082a73.6748,73.6748,0,0,1-9.2256-7.0644,44.4458,44.4458,0,0,1-10.424-13.2155,25.4044,25.4044,0,0,1-2.8948-11.0268,23.2685,23.2685,0,0,1,3.2233-12.2425A25.651,25.651,0,0,1,36.1891,69.65a21.3361,21.3361,0,0,1,8.1815-1.692c1.4536-.0632,5.85-.1893,6.9206,2.3139.9372,2.1823-.62,4.0086-2.5709,4.87a15.1689,15.1689,0,0,1-4.9489,1.0615,6.9378,6.9378,0,0,0-2.5636.5133,11.8033,11.8033,0,0,0-5.5673,5.0155A14.1029,14.1029,0,0,0,33.73,89.33a16.368,16.368,0,0,0,1.748,6.8336,42.7776,42.7776,0,0,0,7.4711,10.5127,59.6689,59.6689,0,0,0,10.34,8.7127q7.5695,4.9652,14.8936,10.1449c4.4943,3.1167,8.0959,5.8764,10.75,8.133A60.9366,60.9366,0,0,1,94.5882,155.21c2.5451,6.1495,3.3392,13.21,2.6385,20.95a25.7876,25.7876,0,0,1-3.6618,10.9024A19.9777,19.9777,0,0,1,85.1322,194.73Z"/><path class="cls-1" d="M79.7869,194.7253a15.4047,15.4047,0,0,1-3.69.67,7.08,7.08,0,0,1-4.1-1.0206,1.73,1.73,0,0,1,.8246-2.65,14.1144,14.1144,0,0,1,4.9448-1.2237,12.144,12.144,0,0,0,4.8567-.9319,10.6977,10.6977,0,0,0,5.1894-5.74,19.9645,19.9645,0,0,0,1.423-9.1362c-.3656-6.6772-1.4385-12.2387-3.3774-16.6525a50.472,50.472,0,0,0-9.0258-13.7862,64.2126,64.2126,0,0,0-13.0663-11.0085c-1.12-.805-2.9185-1.9585-5.4261-3.4373-5.42-3.4837-9.6746-6.1508-12.6663-8.0916a71.0977,71.0977,0,0,1-8.9313-6.9139,42.5054,42.5054,0,0,1-9.9756-12.7908,23.7912,23.7912,0,0,1-2.6627-10.3535,21.169,21.169,0,0,1,2.9663-11.1275A22.0648,22.0648,0,0,1,37.0791,71.578a17.9765,17.9765,0,0,1,6.7193-1.338c2.8009-.1077,4.3939.3054,4.788,1.2063a1.1862,1.1862,0,0,1-.7224,1.7519,11.6084,11.6084,0,0,1-3.6639.7311,10.3015,10.3015,0,0,0-3.8764.8562,15.316,15.316,0,0,0-7.189,6.4537,16.0562,16.0562,0,0,0-2.1783,8.7282,17.8485,17.8485,0,0,0,1.948,7.4656,44.2961,44.2961,0,0,0,7.8215,10.8819,61.6368,61.6368,0,0,0,10.7286,8.9469q5.9007,3.8276,11.6538,7.7858,1.6488,1.1409,3.2855,2.2922c4.5343,3.1158,8.0739,5.8066,10.69,8.0076a54.49,54.49,0,0,1,7.5948,7.9936,54.73,54.73,0,0,1,7.6838,12.7975c2.4635,5.8573,3.2428,12.5231,2.5963,19.97a23.2726,23.2726,0,0,1-3.3113,9.9335,17.5394,17.5394,0,0,1-7.444,6.7777A38.6809,38.6809,0,0,1,79.7869,194.7253Z"/><path class="cls-1" d="M122.67,177.0708c-2.8925,1.0518-5.4689-.019-6.9146-2.9113q-.4286-1.1166-.8571-2.2332l-.0311-.204a5.2736,5.2736,0,0,0-.1276-.5757q-.6306-.258-1.2633-.5139.0178-.695.037-1.39a14.6279,14.6279,0,0,0-.8492-5.5712c-.8053-2.1375-2.1388-5.2109-3.9771-9.1309q-1.9609-4.697-3.93-9.3907c-1.8387-4.8514-4.4172-12.1511-7.6523-21.7662-2.737-8.6386-5.2123-15.9734-7.4066-21.8136q-1.7819-4.1931-3.57-8.3834c-1.1885-2.416-2.425-5.3069-3.6346-8.5124a5.5244,5.5244,0,0,1,.46-5.3407,10.9046,10.9046,0,0,1,5.4739-3.6647,8.9819,8.9819,0,0,1,4.6523-.4921c.595-.13,1.9074-.444,4.781-1.1518a53.7474,53.7474,0,0,1,9.27-1.4786c3.8942-.2764,6.171.56,6.7348,2.418.81,2.6888-2.486,5.3752-3.5538,6.2719q-.4319.3568-.8625.7142-.5725.0327-1.1452.0666A78.8148,78.8148,0,0,0,94.79,83.7094c.4607,1.134,1.0637,2.7686,1.8239,4.94,1.45,4.142,2.6479,7.9652,3.5666,11.3591,1.0374,3.3285,2.2893,7.0834,3.7355,11.1974a5.2485,5.2485,0,0,0,1.01,1.9138q1.1739-.4821,2.35-.958a30.6268,30.6268,0,0,1,3.1093-1.2261c7.7612-2.5888,10.1965-.5083,10.854,1.6015a6.3,6.3,0,0,1-.0835,4.2243,6.0809,6.0809,0,0,1-3.9771,3.4818,9.9,9.9,0,0,1-5.4671.416q-1.9374.3909-3.8745.7995,1.2349,2.7669,3.8888,10.3406,1.9836,5.6647,3.4441,10.3646,1.71,5.1352,3.4233,10.2694c1.2881,3.6684,2.7949,7.448,4.4547,11.206.9595,2.3827,1.7482,2.7081,1.8348,2.7368.169.0609,1.1475.2856,3.9476-.6609q1.3142-.5214,2.6316-1.0336a31.4627,31.4627,0,0,1,3.1862-1.1966c5.5348-1.7563,7.348.0708,7.8834,1.8582.9257,3.1078-1.5911,5.5422-7.4323,7.4411Q128.8579,174.8224,122.67,177.0708Z"/><path class="cls-1" d="M117.7924,173.1813l-.6939-1.8632a9.0529,9.0529,0,0,0-.4876-1.7778q-.4145-.1717-.8295-.3428a16.5849,16.5849,0,0,0-.943-6.3381q-1.2219-3.2988-3.9825-9.2883-1.9182-4.67-3.8439-9.3365-2.6663-7.1647-7.4865-21.6892-4.0423-13.0119-7.3056-21.9148-1.7713-4.2363-3.55-8.47-1.8039-3.7329-3.56-8.4658a3.7243,3.7243,0,0,1,.1851-3.5737,7.7643,7.7643,0,0,1,3.8476-2.4526,5.1906,5.1906,0,0,1,3.36-.2164c.2893.0093,2.1977-.4551,5.7376-1.3285a50.5512,50.5512,0,0,1,8.655-1.39c2.6057-.1874,4.0456.17,4.3173,1.0459.303.976-.6086,2.3213-2.6933,4.0527-7.7892.4526-13.231,1.3349-16.2486,2.4024q-.32.6006-.6374,1.2014a63.9246,63.9246,0,0,1,2.3956,6.1273q2.2069,6.193,3.5929,11.22,1.618,5.1041,3.8347,11.2953,1.4445,4.0308,3.9018,3.158,1.3784-.5652,2.76-1.1216a28.9069,28.9069,0,0,1,2.9446-1.1665c4.59-1.5413,7.176-1.3835,7.73.3625a4.4085,4.4085,0,0,1-.0152,2.9756,3.3355,3.3355,0,0,1-2.2619,1.9388,6.5091,6.5091,0,0,1-4.3925.1762q-2.9083.5817-5.8168,1.2035-.4355.1536-.8708.3083-.3063.5137-.61,1.0278l.1545.4323a116.6626,116.6626,0,0,1,4.4008,11.2546q2.0028,5.6189,3.4819,10.2848,1.7431,5.1418,3.49,10.282,2.0076,5.6171,4.5852,11.3533c.8886,2.1732,1.9268,3.4524,3.1067,3.8493,1.1767.3954,2.9962.1621,5.4632-.6695q1.3661-.54,2.7356-1.0706a29.9462,29.9462,0,0,1,3.0513-1.1495c2.9972-.9567,4.6987-.7752,5.0857.4894.5359,1.7583-1.4536,3.3081-5.9407,4.7682q-6.2745,2.049-12.4958,4.3093C120.1238,175.7368,118.7429,175.1124,117.7924,173.1813Z"/><path class="cls-1" d="M156.5544,166.4382c-1.51.3975-4.305.4426-6.18-3.8809l-.1927-.4458q.0161-.2427.032-.4855a22.6757,22.6757,0,0,0-.9724-4.2761c-2.5166-9.0563-6.1263-22.6452-10.6673-40.4-4.5051-17.6334-7.8555-30.57-10.0228-38.4376q-.5549-2.7642-1.1054-5.53-.3282-2.336-.651-4.673c-.4559-1.6059.87-3.3338,3.2709-3.9686a14.9976,14.9976,0,0,1,3.7309-.3827q1.2957-.0068,2.5894-.0066.1869.7443.3739,1.4886.8359,3.327,1.3211,6.0977,2.7481,10.9159,5.4961,21.8317c1.3089,4.6839,2.7265,10.0725,4.2453,16.1182l.0526.2092.0024.2189a16.3517,16.3517,0,0,0,.5871,2.8806q.315,1.6274.6313,3.2545c.3771,1.9811.8249,3.9843,1.34,6.0248q.8451,3.35,1.7091,6.0742.9521,3.3963,1.901,6.7931-.0687.4492-.1369.8987a3.1741,3.1741,0,0,1,.0656.9616c.0118.0465.0234.0931.0353.1394a2.44,2.44,0,0,0,.5513,1.0987l.3725.3995q1.5979,7.44,3.2146,14.875l.21.8253c.1973.78.3466,1.3186.4564,1.6846-.0025-.02,7.2437-1.5114,7.3107-1.5067,2.3038-.5373,3.9545-.8774,4.8626-1.0272.8463-.1358,1.3657-.2228,1.5609-.2648q.2386-.0518.4777-.1032a4.4878,4.4878,0,0,1,3.5342.8168,4.5409,4.5409,0,0,1,2.0079,2.8487c.3668,1.8167-.4192,4.0579-3.7026,4.9706-1.949.3285-6.1557,1.1761-12.7109,2.8044l0,.1567a25.2326,25.2326,0,0,0-2.54.7718A15.4822,15.4822,0,0,1,156.5544,166.4382Z"/><path class="cls-1" d="M152.45,161.7009a22.1206,22.1206,0,0,0-1.0138-4.9545q-3.69-13.5741-10.4339-40.4242-6.6653-26.7084-9.819-38.5273-.5259-2.7094-1.0474-5.42-.309-2.2923-.6125-4.5855-.2774-1.0335,1.0852-1.3957a11.9323,11.9323,0,0,1,2.8332-.2658q.31-.0017.6207-.0029.8377,3.2583,1.3287,5.9744.7432,2.8869,1.4866,5.7738l4.1565,16.1431q2.0128,7.0593,4.3346,16.0944a18.2993,18.2993,0,0,0,.66,3.3051q.313,1.5769.6275,3.1538.59,3.01,1.3949,6.1144.88,3.4062,1.7742,6.1738.9052,3.162,1.8079,6.325-.0975.6559-.1938,1.3123l.13-.1908a.808.808,0,0,1-.0152.6352q.0767.296.153.5916a4.3715,4.3715,0,0,0,1.0318,1.9471q1.5826,7.1713,3.1822,14.3383l.23.8888a14.888,14.888,0,0,0,.9259,2.92.695.695,0,0,0,.9763.5369q4.1313-.9,8.2726-1.7118c2.4184-.5657,4.0871-.91,4.9929-1.06q1.36-.22,1.6793-.2882.2376-.0515.4753-.1027a2.2978,2.2978,0,0,1,1.7576.4849,2.5259,2.5259,0,0,1,1.1493,1.5556c.25,1.197-.4514,2.0188-2.0966,2.478-1.7975.2892-6.1421,1.1622-12.9926,2.8727l.3493.0694a26.9352,26.9352,0,0,0-2.9178.8976,12.859,12.859,0,0,1-2.7143,1.0276C154.5609,164.7707,153.3789,163.8786,152.45,161.7009Z"/><path class="cls-1" d="M190.27,159.0288c-2.9978.5251-5.325-.9837-6.24-4.0849q-.2271-1.1742-.454-2.3485c.0013-.0688.0029-.1375.0043-.2063a5.1441,5.1441,0,0,0-.026-.5888q-.57-.3652-1.1428-.7289.1356-.6807.273-1.361a14.7886,14.7886,0,0,0,.1228-5.6311c-.42-2.2455-1.1945-5.5047-2.3168-9.6861q-1.1093-4.9673-2.2263-9.9333c-.9639-5.0976-2.2306-12.7357-3.7419-22.7664-1.1929-8.9821-2.3538-16.6363-3.4947-22.77q-1.02-4.44-2.0479-8.8787c-.7451-2.5868-1.4575-5.6493-2.0887-9.0169a5.5468,5.5468,0,0,1,1.3591-5.1733,10.695,10.695,0,0,1,5.96-2.6406,8.8208,8.8208,0,0,1,4.62.3348c.6032-.0228,1.935-.1016,4.86-.2929a52.9642,52.9642,0,0,1,9.3.171c3.8488.41,5.93,1.6318,6.1615,3.56.33,2.7891-3.3489,4.8562-4.5447,5.5518q-.4825.2756-.9643.5519-.5641-.0683-1.1292-.1352a77.6959,77.6959,0,0,0-13.4725-.7081c.2549,1.1971.5637,2.9115.934,5.1824.7059,4.3312,1.2209,8.3047,1.5366,11.8061.4427,3.458,1.0215,7.3734,1.7288,11.6766a5.2933,5.2933,0,0,0,.6576,2.0611q1.2269-.2679,2.4554-.5292a30.0583,30.0583,0,0,1,3.2421-.66c8.015-1.1854,10.0385,1.2877,10.3181,3.48a6.3321,6.3321,0,0,1-.805,4.1437,5.9964,5.9964,0,0,1-4.4776,2.73,9.7169,9.7169,0,0,1-5.4046-.5509q-1.9563.0441-3.9148.1054.7317,2.94,2.0245,10.8605.9672,5.9236,1.5871,10.8058.7893,5.3546,1.5829,10.7086c.6294,3.8365,1.4518,7.8211,2.4286,11.8115.5285,2.514,1.2414,2.9731,1.3212,3.0163.1548.09,1.07.4821,3.9631.0435q1.371-.2823,2.7442-.5552a30.8445,30.8445,0,0,1,3.3143-.6189c5.7037-.759,7.1629,1.3565,7.379,3.2095.3727,3.2217-2.5055,5.178-8.5308,6.0228Q196.6844,157.9074,190.27,159.0288Z"/><path class="cls-1" d="M186.1815,154.3415q-.1791-.9778-.3582-1.9557a9.1619,9.1619,0,0,0-.1718-1.8354q-.3744-.2421-.75-.4837a16.7432,16.7432,0,0,0,.1627-6.4025q-.6268-3.4608-2.2955-9.8417-1.072-4.9332-2.152-9.8646-1.3761-7.52-3.5935-22.6617c-1.1456-9.0111-2.257-16.63-3.3788-22.8514q-1.0031-4.481-2.0133-8.96-1.1205-3.992-2.0243-8.9579a3.7435,3.7435,0,0,1,.79-3.4837,7.6135,7.6135,0,0,1,4.1684-1.7348,5.0975,5.0975,0,0,1,3.3124.3786c.28.06,2.22-.0609,5.8225-.2983a49.7508,49.7508,0,0,1,8.6833.15c2.5761.272,3.9206.876,4.0358,1.7858.1279,1.0134-.9912,2.1788-3.3238,3.5175-7.68-.9194-13.1367-1.0088-16.261-.49q-.4142.5346-.8265,1.07a64.3379,64.3379,0,0,1,1.2887,6.4514q1.0934,6.4827,1.586,11.6739.7053,5.3076,1.8087,11.79c.48,2.8137,1.5666,4.0739,3.2642,3.7947q1.44-.3138,2.8832-.6181a28.4724,28.4724,0,0,1,3.0714-.63c4.7419-.7106,7.2394-.1027,7.4812,1.7133a4.4322,4.4322,0,0,1-.5244,2.9263,3.2876,3.2876,0,0,1-2.5391,1.5116,6.399,6.399,0,0,1-4.3156-.598q-2.9365.0617-5.878.1614-.4507.0746-.9015.15-.3861.4515-.77.9038.0382.2262.0767.4526a117.9882,117.9882,0,0,1,2.3675,11.85q.9918,5.8818,1.6375,10.734.8208,5.3667,1.646,10.7326.9969,5.8811,2.53,11.98.7426,3.4421,2.3712,4.335c1.08.5965,2.8935.6867,5.4422.3018q1.4249-.2917,2.8521-.5734a29.3213,29.3213,0,0,1,3.1746-.5962c3.0892-.4165,4.72.06,4.8814,1.3725.2218,1.8247-1.9874,3.0026-6.616,3.6525q-6.4735.9159-12.9224,2.0433C188.0177,157.267,186.7777,156.4091,186.1815,154.3415Z"/><path class="cls-1" d="M237.4377,154.1033q-2.1222-.642-4.2592-1.2612a18.6277,18.6277,0,0,1-5.9969-2.5175,19.7118,19.7118,0,0,1-5.1239-5.2615c-2.8116-4.1195-4.9072-10.1474-6.1765-17.977-.573-3.3912-1.01-6.49-1.2884-9.2056q-.8882-8.67-1.7763-17.3391c-.68-6.6354-1.1018-13.1554-1.2255-19.3825a76.8912,76.8912,0,0,1,.5771-12,40.4294,40.4294,0,0,1,2.9248-10.2121,19.2427,19.2427,0,0,1,6.3444-8.2951,24.7194,24.7194,0,0,1,5.8706-2.836q2.4822-.9,4.7065-1.8863.2882-.1275.5764-.2547,5.2371-.2741,10.4781-.44l.322.2361q.6443.077,1.288.1553.7456.3993,1.489.8008l.1422.1014a3.7344,3.7344,0,0,1,1.3145,1.41,3.4568,3.4568,0,0,1,.3733,1.582q.0087.3956.0175.7908-2.0037,1.8587-3.9775,3.7334-4.7757.1446-9.5483.38a6.7215,6.7215,0,0,0-4.5822,2.32,15.6173,15.6173,0,0,0-3.6629,6.5732,43.8119,43.8119,0,0,0-1.8155,8.8943,67.0022,67.0022,0,0,0-.4629,8.8569c-.0072,4.0131.0676,5.8267.1291,6.6512q.0155.2055.031.4109-.1563.3945-.3116.789c.4131,5.5178.6772,10.5981.7919,15.11q.4136,7.6869.8394,15.3729a70.16,70.16,0,0,0,1.9031,11.8936,20.6649,20.6649,0,0,0,5.0617,9.7439c2.2741,2.5945,5.4929,3.7089,9.9394,3.5244a3.7554,3.7554,0,0,0,2.5134-.9284q.3111-.2833.6235-.5664.4322-.0144.8642-.0278c3.4633-.1045,4.73,1.9351,4.7619,3.6878.0347,1.9044-1.5755,3.3506-2.7782,4.28a20.0341,20.0341,0,0,1-4.5011,2.6533q-.188.0792-.376.1585Q240.447,153.94,237.4377,154.1033Z"/><path class="cls-1" d="M233.8271,150.8083a16.4707,16.4707,0,0,1-5.37-2.233,17.6384,17.6384,0,0,1-4.5153-4.6977c-2.6153-3.8651-4.5473-9.5676-5.73-17.1357q-.84-5.1408-1.2238-9.1-.84-8.6742-1.6808-17.3486-.9594-9.8922-1.1109-19.2507a75.0368,75.0368,0,0,1,.6233-11.7288,38.72,38.72,0,0,1,2.8487-9.7661,17.3292,17.3292,0,0,1,5.5684-7.3371,22.7215,22.7215,0,0,1,5.2259-2.4916c1.6921-.6129,3.3283-1.2658,4.896-1.9579q4.0008-.204,8.0039-.3448.3-.0105.6009-.0207a.9655.9655,0,0,0,.6059.1319q.5017.06,1.0033.12.4069.2171.813.4348c.41.2951.6145.4944.6171.5965a1.6853,1.6853,0,0,1,.2275.9094q-1.2638,1.183-2.5155,2.3722-4.1663.1365-8.33.3423a9.656,9.656,0,0,0-6.656,3.2079,17.4008,17.4008,0,0,0-4.1158,7.4049,44.98,44.98,0,0,0-1.8244,9.1828,68.2176,68.2176,0,0,0-.4229,9.0846c.0108,3.2728.0725,5.5175.1708,6.736q-.1542.3954-.3076.7908.6969,8.5368.904,15.4221.4563,7.7108.9251,15.4206a72.0962,72.0962,0,0,0,2.03,12.261,22.6668,22.6668,0,0,0,5.599,10.6192c2.7227,3.0869,6.61,4.466,11.7509,4.2531a6.0807,6.0807,0,0,0,3.98-1.5218c1.6149-.05,2.4351.4936,2.4627,1.6153.018.7137-.63,1.5693-1.9328,2.5765a17.6594,17.6594,0,0,1-3.9836,2.36q-2.6209.1058-5.241.2455Q235.781,151.3753,233.8271,150.8083Z"/><path class="cls-1" d="M276.94,152.38a5.013,5.013,0,0,1-4.1438-2.26,6.9046,6.9046,0,0,1-1.0422-4.04q.422-13.6029.844-27.2059.2063-12.2181.3933-24.4366c-.0326-11.07.0084-19.0945.166-24.4983q.163-2.2512.3281-4.5025.1443-4.93.2884-9.86c.25-8.4694.2843-12.4879.2567-14.3894q-10.1587-.2955-20.3225-.1877a10.6514,10.6514,0,0,1-4.4319-.86c-1.731-.757-2.7122-1.9733-2.7487-3.4334a3.6843,3.6843,0,0,1,1.3671-3.21c.912-.7,2.3153-1.1232,4.8681-1.4487a52.7135,52.7135,0,0,1,8.6874-.5178q10.3206.0456,20.6358.5,11.3328.4228,22.65,1.339a9.5539,9.5539,0,0,1,5.2091,1.6392,4.0173,4.0173,0,0,1,1.5161,3.7421c-.22,2.1283-2.1972,4.2007-7.093,3.7612q-8.4822-.7515-16.9809-1.22-.1114,3.4295-.2248,6.8588-2.4048,43.3019-4.81,86.6036-.24,5.8071-.4845,11.6138a13.4625,13.4625,0,0,1-.33,2.4216,4.5371,4.5371,0,0,1-1.189,2.1789A4.004,4.004,0,0,1,276.94,152.38Z"/><path class="cls-1" d="M274.6852,149.0119a4.8412,4.8412,0,0,1-.695-2.857q.2485-6.7995.4968-13.599.2485-6.801.4968-13.6018.2744-12.2306.5288-24.4617c.0275-10.9121.1125-19.0693.3-24.4694q.1734-2.2129.3486-4.426.1737-4.9663.3471-9.9326.5795-16.5031.1684-16.5185-11.4916-.3919-22.9913-.27a7.05,7.05,0,0,1-2.9613-.5714,1.8841,1.8841,0,0,1-1.3581-1.66,1.9862,1.9862,0,0,1,.5837-1.6923,8.4928,8.4928,0,0,1,3.2731-.811,50.2423,50.2423,0,0,1,8.2177-.4877q10.2786.0456,20.5518.4978,11.2995.4215,22.5835,1.3352a6.5493,6.5493,0,0,1,3.3231.9163,2.2,2.2,0,0,1,.7312,2.067c-.1478,1.5234-1.5057,2.1544-4.0747,1.9258q-4.57-.4048-9.1458-.728-4.4724-.3159-8.9486-.5539-.9183.0274-1.8363.0581-.1188,4.4337-.2407,8.8673-.2979,5.9574-.596,11.9147-1.5507,31.002-3.1015,62.004-.317,6.3372-.634,12.6742-.2006,5.655-.4051,11.31l-.0154.3066a11.5217,11.5217,0,0,1-.2632,2.0523,2.36,2.36,0,0,1-.7032,1.2666,1.7527,1.7527,0,0,1-1.6312.6912A2.7412,2.7412,0,0,1,274.6852,149.0119Z"/><path class="cls-1" d="M332.09,159.1427c-2.2191-.41-3.4843-.9527-4.2283-1.8406-.7434-.8752-1.0366-2.1843-.975-4.37.2886-7.5323.4339-12.2219.5188-14.0719q.0639-2.3.1214-4.6012a38.9952,38.9952,0,0,0-6.168-1.3941q-3.0431-.6075-6.0953-1.17c-2.0731-.513-3.651-.8539-4.7741-1.0431q-.27,1.1484-.5377,2.297a110.9279,110.9279,0,0,1-3.1563,10.8895,29.4381,29.4381,0,0,1-2.8831,6.6465c-.6394.99-2.293,3.5937-4.7873,3.3424a5.77,5.77,0,0,1-3.2976-1.6189,4.2681,4.2681,0,0,1-1.6538-3.5871q.0149-.1723.03-.3444.27-.5983.54-1.1965c2.4735-6.8118,4.8121-13.8192,6.846-20.7033q1.4913-4.637,3.0273-9.2645,1.6281-5.637,3.31-11.2631,1.5241-4.9173,3.0921-9.8256c.9245-2.7,2.541-7.0444,4.8933-12.9247,2.5268-6.5551,4.2116-11.1034,4.9012-13.5247l.0576-.2018.1067-.187c.0007-.0276.2706-.83,1.31-5.0594,1.0428-3.8915,1.87-6.65,2.5255-8.4688,1.04-3.6116,1.6647-4.6387,2.4346-5.2348q.4725-.3642.9463-.7277,1.6182.2218,3.2353.4544.2079.0857.4153.1717a2.1677,2.1677,0,0,0,.5062.1153,3.207,3.207,0,0,0,1.6674-.0506q.4525-.2484.9064-.4962.5759.0868,1.1514.1748a8.0107,8.0107,0,0,1,4.06,1.82,3.8026,3.8026,0,0,1,1.5783,3.554,121.2831,121.2831,0,0,0-1.3966,16.5779q-.0536,4.9589-.2267,8.2195c-.8719,13.1472-1.5064,38.2735-3.6151,74.5016l-.1216.7173a4.66,4.66,0,0,1-3.0472,3.584q-.2956.11-.5908.2212Q332.4028,159.2009,332.09,159.1427Zm-18.9414-36.2459c.74.2415,2.0275.6,4.2179,1.1061,3.7831.8817,7.2069,1.6,10.21,2.1122.9241-11.8717,1.8562-28.2032,2.4363-48.74q-5.3465,12.8178-10.3214,25.7368C315.3052,114.62,313.7263,120.2179,313.1481,122.8968Z"/><path class="cls-1" d="M329.579,155.9837c-.36-.4258-.51-1.41-.459-2.9534.3285-7.4947.4994-12.1721.5932-14.0188q.1025-3.0852.1929-6.1714a38.5335,38.5335,0,0,0-8.2364-2.0763q-2.9934-.5985-5.9957-1.1542a52.5871,52.5871,0,0,0-5.8248-1.1994c-.6761-.08-1.0988.1287-1.267.6218-.0352.3021-.11.4491-.2231.4361q-.3435,1.5-.6848,3a110.5737,110.5737,0,0,1-3.0513,10.7336,27.5051,27.5051,0,0,1-2.6261,6.1737c-1.04,1.6359-1.9184,2.4132-2.66,2.3388a3.5642,3.5642,0,0,1-1.9852-1.0384,2.2891,2.2891,0,0,1-.954-1.8557q.1005-.22.2014-.44.1011-.2212.2019-.4424c2.5973-7.0265,4.9692-14.01,7.0646-20.9671q1.5087-4.6072,3.0619-9.2051,1.6687-5.6631,3.392-11.3151,1.548-4.9008,3.1392-9.7926c.9289-2.6629,2.5446-6.9345,4.925-12.7995,2.6066-6.6582,4.3206-11.2109,5.0391-13.6877a54.9153,54.9153,0,0,0,1.5212-5.5046q1.5473-5.6511,2.5228-8.297,1.1362-3.8553,1.819-4.3792.6954.0973,1.3907.1967a5.77,5.77,0,0,0,1.3683.351,5.9779,5.9779,0,0,0,3.71-.3742A4.6113,4.6113,0,0,1,338.13,53.23,1.9355,1.9355,0,0,1,338.97,54.99a122.6263,122.6263,0,0,0-1.3264,16.8229c-.0178,3.3061-.083,6.031-.1815,8.1842-.8063,13.1985-1.2936,38.124-3.2176,74.5857q-.0426.2255-.085.4511a2.5229,2.5229,0,0,1-1.6824,2.02A5.5114,5.5114,0,0,1,329.579,155.9837Zm.1727-27.3557c1.2757-14.6667,2.6311-36.4016,3.2976-65.2734q-8.2947,19.3929-15.7349,39.02c-4.2366,11.274-6.3791,18.4689-6.752,21.503-.06.509,2.0384,1.2065,6.2743,2.1852,4.2346.9855,7.9675,1.7588,11.23,2.2879Q328.9093,128.4878,329.7517,128.628Z"/><path class="cls-1" d="M349.9474,163.1867a5.1747,5.1747,0,0,1-3.34-2.4154,5.2935,5.2935,0,0,1-.6285-3.9511q.4227-2.2982.8434-4.5967c.8058-3.6848,2.3061-9.0017,4.5241-15.86,2.2331-7.5154,3.6931-12.677,4.2809-15.3089q.66-3.3534,1.317-6.7073c.3224-1.9877.7584-4.2254,1.299-6.6518.8948-4.0111,2.4078-9.9746,4.5278-17.7154,2.1988-8.0717,3.701-13.8587,4.5655-17.7q.8019-3.975,1.6005-7.9506-.3115-.4683-.6243-.9361.1811-.8122.3626-1.6248c.8234-3.7261,3.9025-5.39,8.2231-4.3656,2.4226.5773,5.9514,2.11,10.7133,4.7618,5.1945,2.91,8.0747,5.1,7.61,7.254a26.1811,26.1811,0,0,1,2.138,9.98,43.0728,43.0728,0,0,1-2.0384,11.6791,55.1856,55.1856,0,0,1-6.5539,14.8285l.67.195q-1.2306,1.24-2.4514,2.4855a48.1143,48.1143,0,0,1-4.1327,3.2009q-.8763.63-1.7479,1.2637a19.79,19.79,0,0,1,2.7828,6.7326,24.8694,24.8694,0,0,1,.45,9.0843c-.1556.9492-.3606,2.0819-.631,3.4124q-.4062,1.9821-1.0238,4.6865-.4868,1.9484-.9746,3.8963l-.6329,2.1314c-2.9954,10.01-8.77,16.46-16.8411,19.547A23.8623,23.8623,0,0,1,349.9474,163.1867Zm17.7666-48.4749c-2.2517,7.0376-3.9614,12.9935-5.1248,17.7164q-.42,1.7077-.8406,3.4155a37.094,37.094,0,0,0-1.1366,6.5811q-.0186.3786-.0368.7572-.2757.2721-.5511.5447c-.0714.0791-.8112,1.0051-2.033,5.9929q-.4737,1.9311-.9473,3.8621-.05.2682-.1.5365a10.4916,10.4916,0,0,0,4.0671-.7955,15.9886,15.9886,0,0,0,5.9756-4.2044,15.1039,15.1039,0,0,0,3.5044-6.1153l.0683-.2509q.1617-.2729.3235-.5454.3473-1.2767.695-2.5535a56.6774,56.6774,0,0,0,1.9639-11.7445c.0964-4.7643-1.0154-8.59-3.3167-11.2685A8.0721,8.0721,0,0,0,367.714,114.7118Zm2.069-9.6383c5.9387,1.1919,10.501-3.8892,13.5888-15.2962.2781-1.0363.7156-3.1608,1.2991-6.3225q.2046-1.0359.4085-2.072l-.2422-.3222q.04-.3685.08-.7372a27.55,27.55,0,0,0-.0382-7.7438A5.4789,5.4789,0,0,0,383.3,69.599a5.8636,5.8636,0,0,0-2.2292-1.4258c-.8484.6921-3.1868,3.7283-6.4123,16.8324a45.04,45.04,0,0,0-1.0216,4.8607q-1.0123,4.1238-2.0246,8.2476c-.538,1.6446-1.0236,3.37-1.5,5.3006l-.3574,1.447Z"/><path class="cls-1" d="M348.5272,159.7383a3.1834,3.1834,0,0,1-.36-2.432q.4422-2.3295.8828-4.66c.806-3.58,2.306-8.7814,4.5485-15.5914,2.3139-7.6274,3.8-12.776,4.4153-15.4608q.6836-3.3726,1.3645-6.7458.5082-3.0205,1.3254-6.5988,1.3628-5.9608,4.6062-17.6121,3.323-11.945,4.6832-17.7528.9016-4.3428,1.7993-8.6864-.3033-.4615-.6077-.9226.1025-.4475.2049-.895c.5874-2.5814,2.2634-3.5661,5.0178-2.9127,2.0958.4994,5.3895,1.9474,9.8188,4.4118,4.4257,2.4743,6.4926,4.1446,6.278,4.9273q-.0611.2212-.122.4425a24.7165,24.7165,0,0,1,2.2832,9.8529,41.2692,41.2692,0,0,1-1.91,11.2252c-2.0671,7.1492-4.7329,12.6914-7.8995,16.6678l.1771.05a46.4713,46.4713,0,0,1-3.9053,3.0388q-1.6638,1.2066-3.3115,2.4251a16.5861,16.5861,0,0,1,3.6462,7.51,23.0317,23.0317,0,0,1,.4667,8.4056c-.1449.9111-.3405,2.023-.597,3.328q-.3907,1.96-.99,4.6482-.471,1.9336-.9445,3.8667-.3,1.0273-.5993,2.0548c-2.7546,9.4-7.9956,15.3733-15.4466,18.2355a21.4415,21.4415,0,0,1-12.9225.56A2.8923,2.8923,0,0,1,348.5272,159.7383Zm13.4258-4.4463a18.205,18.205,0,0,0,6.8183-4.7554,17.02,17.02,0,0,0,3.9909-6.91q.163-.2719.3263-.5436.1641-.59.3283-1.18l.4506-1.62a58.1761,58.1761,0,0,0,2.0923-12.1146c.1361-5.3536-1.1224-9.6073-3.7893-12.7223A11.5394,11.5394,0,0,0,366,111.8544c-2.5809,8.0815-4.4757,14.7538-5.7387,20.0076l-.8218,3.42a38.7,38.7,0,0,0-1.1519,6.9561q-1.1448,1.14-2.5288,6.94-.4629,1.9337-.9259,3.8673-.2575,1.4325-.5166,2.8648A12.407,12.407,0,0,0,361.953,155.292Zm6.9054-48.25c7.7777,1.9258,13.4506-3.4918,17.0787-16.5683q.4446-1.62,1.3639-6.4446.29-1.4273.5794-2.8547-.149-.1983-.298-.3965a28.9114,28.9114,0,0,0-.0183-8.2424,7.68,7.68,0,0,0-2.2021-4.1393,9.136,9.136,0,0,0-4.3263-2.4468q-4.2908-1.072-8.9682,18.4243a45.7641,45.7641,0,0,0-1.035,5.0983q-.359,1.4865-.7182,2.973-.61,2.5269-1.2205,5.0536-.7566,2.3352-1.4711,5.3089-.2148.8911-.43,1.7823.07.489.1395.9781.053.5634.1052,1.1267Q368.1485,106.8667,368.8584,107.0416Z"/><path class="cls-1" d="M390.98,175.421c-1.482-.5211-3.83-2.0558-2.9593-6.6875q.045-.2385.09-.4773.15-.1919.2995-.3837a22.524,22.524,0,0,0,1.595-4.0849c2.9986-8.9082,7.6353-22.1824,13.84-39.4262,6.167-17.123,10.6531-29.7111,13.2729-37.44q1.0929-2.5992,2.1893-5.1967,1.04-2.1174,2.0857-4.2325c.5238-1.5855,2.5973-2.2692,4.9546-1.4423a15.1705,15.1705,0,0,1,3.3247,1.7849q1.0842.7244,2.164,1.4539-.2631.7211-.526,1.4419-1.176,3.2228-2.33,5.7879-3.8519,10.5769-7.7031,21.1539c-1.5451,4.6111-3.3935,9.8681-5.5307,15.7236l-.0738.2026c-.04.0608-.0811.1216-.1214.1824a16.2154,16.2154,0,0,0-1.1313,2.7133q-.6533,1.5235-1.3054,3.0475-1.2011,2.7764-2.2733,5.7381-1.1806,3.2476-1.9931,5.9871-1.1175,3.3453-2.2375,6.69-.31.3329-.62.6659a3.13,3.13,0,0,1-.4866.8324l-.0491.1352a2.4256,2.4256,0,0,0-.1583,1.2194q.0432.27.0859.54-2.8544,7.0537-5.6908,14.1144l-.2893.8011c-.2741.7565-.4529,1.2864-.5672,1.6505.0061-.0188,6.9021,2.836,6.9568,2.8793,2.23.8576,3.8066,1.51,4.6516,1.9.7868.3671,1.2692.5886,1.4581.6646q.23.0924.4589.1851a4.5717,4.5717,0,0,1,2.5061,2.6772,4.5089,4.5089,0,0,1,.08,3.4921c-.7161,1.7094-2.6433,3.1142-5.913,2.01-1.82-.8313-5.8279-2.5132-12.2173-4.8627-.0293.0433-.0586.0864-.0877.13a25.6861,25.6861,0,0,0-2.5539-.7935A15.6747,15.6747,0,0,1,390.98,175.421Z"/><path class="cls-1" d="M390.2282,169.1922a22.0115,22.0115,0,0,0,1.9421-4.67q4.5617-13.3054,14.0483-39.3144,9.4717-25.8474,13.4933-37.3991,1.086-2.5374,2.1762-5.0732,1.032-2.07,2.0688-4.1381.35-1.0108,1.6889-.5437a12.1075,12.1075,0,0,1,2.5106,1.3757q.26.1735.519.3474-1.1349,3.167-2.254,5.69-1.0048,2.8066-2.01,5.6132-2.81,7.8469-5.6188,15.6941-2.2928,6.9729-5.4429,15.7541a18.2079,18.2079,0,0,0-1.3092,3.1058q-.6264,1.4808-1.2516,2.9621-1.2021,2.821-2.2778,5.8433-1.184,3.313-1.9948,6.1061-1.0248,3.1254-2.052,6.25-.4507.4877-.9.9763l.2159-.0844c-.1025.2887-.2287.462-.37.5167q-.1024.2878-.2053.5757a4.3469,4.3469,0,0,0-.2355,2.1918q-2.7162,6.8229-5.4154,13.6522-.1543.4324-.3085.8648a14.6738,14.6738,0,0,0-.8709,2.9366.6975.6975,0,0,0,.5117.9942q3.9519,1.5836,7.8744,3.2514c2.343.8986,3.9355,1.5575,4.7783,1.9464q1.2642.5881,1.5706.7122.2283.0919.4565.1842a2.3388,2.3388,0,0,1,1.2017,1.396,2.51,2.51,0,0,1,.0872,1.9368c-.4661,1.1309-1.5181,1.4123-3.1573.86-1.67-.7783-5.8079-2.5174-12.49-4.9649q.1264.1272.2524.2544a27.2355,27.2355,0,0,0-2.9392-.9021,13.022,13.022,0,0,1-2.84-.6787C390.2586,172.9191,389.7769,171.5161,390.2282,169.1922Z"/><path class="cls-1" d="M425.781,189.4516c-2.82-1.2931-3.9112-3.869-2.9118-6.9445q.4789-1.0958.958-2.1917.0606-.0836.1209-.1672a5.0769,5.0769,0,0,0,.314-.4992q-.27-.6276-.5432-1.2553.5014-.4817,1.0047-.9625a14.5532,14.5532,0,0,0,3.3133-4.56c.9281-2.0877,2.1354-5.2119,3.5775-9.2949q1.901-4.7214,3.7946-9.4463c2.0972-4.7445,5.3883-11.7529,9.8383-20.8691,4.1194-8.0709,7.5093-15.0306,10.048-20.73q1.6749-4.2369,3.3428-8.4767c.8489-2.5551,1.9975-5.4818,3.3876-8.6138a5.5117,5.5117,0,0,1,4.09-3.4733,11.0419,11.0419,0,0,1,6.5158,1.2571,9.1515,9.1515,0,0,1,3.6983,2.9372c.5214.3294,1.6884,1.0324,4.2643,2.5643a55.3641,55.3641,0,0,1,7.7584,5.5226c3.0217,2.5692,4.0877,4.7827,3.183,6.5-1.3136,2.4816-5.6112,2.043-7.0192,1.9212q-.5655-.0536-1.1307-.1056-.4383-.3833-.8778-.7655a80.9255,80.9255,0,0,0-10.9645-8.3676c-.4673,1.1307-1.1865,2.7182-2.17,4.7978-1.8762,3.9669-3.7107,7.5292-5.4425,10.589-1.6008,3.0979-3.3467,6.6493-5.2067,10.5936a5.193,5.193,0,0,0-.6224,2.073q1.1864.4871,2.3706.981a31.3282,31.3282,0,0,1,3.1108,1.3294c7.4411,3.6593,7.7494,6.8712,6.7314,8.8326a5.9368,5.9368,0,0,1-8.3916,2.5855,10.1277,10.1277,0,0,1-4.2466-3.5761q-1.6749-1.0932-3.359-2.1717-1.0615,2.838-4.492,10.093-2.5649,5.4261-4.8292,9.7961-2.39,4.856-4.7772,9.7137c-1.66,3.5162-3.2406,7.2652-4.6946,11.1077-.99,2.3708-.65,3.159-.6081,3.2409.0789.1626.6251,1.0132,3.3164,2.3233q1.3178.56,2.6334,1.13a32.0088,32.0088,0,0,1,3.1542,1.41c5.2578,2.6833,5.2905,5.2722,4.4135,6.9193-1.5241,2.8627-5.0857,2.7925-10.6593-.0021Q431.814,192.22,425.781,189.4516Z"/><path class="cls-1" d="M425.0189,183.2474q.4071-.907.8144-1.8138a9.0507,9.0507,0,0,0,.9021-1.6076q-.1766-.4144-.3538-.8285a16.494,16.494,0,0,0,3.7874-5.1707q1.4472-3.2067,3.6838-9.411,1.9126-4.6722,3.8176-9.3474,3.1325-6.9737,9.9035-20.6974,6.2615-12.1,10.1925-20.73,1.7123-4.2607,3.4179-8.5242,1.3361-3.9261,3.4079-8.5285a3.7135,3.7135,0,0,1,2.65-2.41,7.874,7.874,0,0,1,4.4946.9721,5.2856,5.2856,0,0,1,2.5722,2.22c.2024.2111,1.9029,1.2287,5.078,3.1146a52.0318,52.0318,0,0,1,7.2484,5.148c2.0232,1.7162,2.8169,2.9938,2.3947,3.8076-.4705.9071-2.084,1.2137-4.8213.9613-5.9694-5.2061-10.5138-8.4244-13.44-9.7981q-.6537.2007-1.306.4033a63.0447,63.0447,0,0,1-2.5961,6.0452q-2.7774,5.9589-5.3252,10.509-2.433,4.7694-5.2042,10.7333c-1.2012,2.59-1.0063,4.2505.5825,4.9994q1.392.5725,2.7819,1.1547a29.6141,29.6141,0,0,1,2.95,1.2554c4.4069,2.1559,6.1725,4.1049,5.3407,5.7362a4.3581,4.3581,0,0,1-2.1145,2.1,3.4116,3.4116,0,0,1-3.0088-.2283,6.6536,6.6536,0,0,1-3.3011-2.986q-2.5119-1.6452-5.0455-3.2584-.4221-.1984-.8447-.396-.5826.1486-1.164.2992-.0967.2081-.1936.4162a115.4108,115.4108,0,0,1-4.7682,11.104q-2.52,5.4066-4.7456,9.7661-2.3709,4.8838-4.7377,9.77-2.5155,5.4085-4.7051,11.3043c-.8928,2.1712-1.0466,3.8136-.4771,4.9292.5687,1.113,2.0448,2.2323,4.4148,3.3884q1.3686.5837,2.7349,1.1779a30.6508,30.6508,0,0,1,3.0232,1.3484c2.85,1.4487,3.96,2.7874,3.3467,3.9591-.8533,1.6278-3.3994,1.31-7.6824-.8357q-5.9919-2.9945-12.0571-5.7771C424.892,186.7074,424.3412,185.29,425.0189,183.2474Z"/><path class="cls-1" d="M400.2128,214.636a384.9544,384.9544,0,0,0-283.3918-2.131q-.8871-2.2979-1.7739-4.5957a389.8789,389.8789,0,0,1,287.018,2.1618Q401.1386,212.3534,400.2128,214.636Z"/><path class="cls-1" d="M400.4881,215.2877l-.4629-.1875a383.0794,383.0794,0,0,0-283.024-2.1279l-.4663.18-2.1342-5.5292.4663-.1807a390.3813,390.3813,0,0,1,287.3857,2.165l.4639.1885ZM255.8313,186.0328c1.04,0,2.0723.0039,3.1128.0117a383.3625,383.3625,0,0,1,140.9932,27.9414l1.4765-3.6386a388.0033,388.0033,0,0,0-285.72-2.1524l1.4141,3.6641A384.2426,384.2426,0,0,1,255.8313,186.0328Z"/></svg>